<?xml version="1.0" encoding="utf-8" standalone="no"?>
<!DOCTYPE svg PUBLIC "-//W3C//DTD SVG 1.1//EN"
  "http://www.w3.org/Graphics/SVG/1.1/DTD/svg11.dtd">
<svg xmlns:xlink="http://www.w3.org/1999/xlink" width="256.16pt" height="256.16pt" viewBox="0 0 256.16 256.16" xmlns="http://www.w3.org/2000/svg" version="1.1">
 <metadata>
  <rdf:RDF xmlns:dc="http://purl.org/dc/elements/1.1/" xmlns:cc="http://creativecommons.org/ns#" xmlns:rdf="http://www.w3.org/1999/02/22-rdf-syntax-ns#">
   <cc:Work>
    <dc:type rdf:resource="http://purl.org/dc/dcmitype/StillImage"/>
    <dc:date>2023-12-07T15:10:52.359277</dc:date>
    <dc:format>image/svg+xml</dc:format>
    <dc:creator>
     <cc:Agent>
      <dc:title>Matplotlib v3.6.1, https://matplotlib.org/</dc:title>
     </cc:Agent>
    </dc:creator>
   </cc:Work>
  </rdf:RDF>
 </metadata>
 <defs>
  <style type="text/css">*{stroke-linejoin: round; stroke-linecap: butt}</style>
 </defs>
 <g id="figure_1">
  <g id="patch_1">
   <path d="M 0 256.16 
L 256.16 256.16 
L 256.16 0 
L 0 0 
L 0 256.16 
z
" style="fill: none"/>
  </g>
  <g id="axes_1">
   <g id="patch_2">
    <path d="M 14.4 241.76 
L 139.448 241.76 
L 139.448 219.024 
L 14.4 219.024 
z
" clip-path="url(#p81bee07297)" style="fill: #ffffff; stroke: #ffffff; stroke-linejoin: miter"/>
   </g>
   <g id="patch_3">
    <path d="M 76.924 231.5288 
C 77.225483 231.5288 77.514658 231.40902 77.727839 231.195839 
C 77.94102 230.982658 78.0608 230.693483 78.0608 230.392 
C 78.0608 230.090517 77.94102 229.801342 77.727839 229.588161 
C 77.514658 229.37498 77.225483 229.2552 76.924 229.2552 
C 76.622517 229.2552 76.333342 229.37498 76.120161 229.588161 
C 75.90698 229.801342 75.7872 230.090517 75.7872 230.392 
C 75.7872 230.693483 75.90698 230.982658 76.120161 231.195839 
C 76.333342 231.40902 76.622517 231.5288 76.924 231.5288 
z
" clip-path="url(#p81bee07297)" style="stroke: #000000; stroke-linejoin: miter"/>
   </g>
   <g id="patch_4">
    <path d="M 139.448 241.76 
L 219.024 241.76 
L 219.024 105.344 
L 139.448 105.344 
z
" clip-path="url(#p81bee07297)" style="fill: #ffffff; stroke: #ffffff; stroke-linejoin: miter"/>
   </g>
   <g id="patch_5">
    <path d="M 179.236 174.6888 
C 179.537483 174.6888 179.826658 174.56902 180.039839 174.355839 
C 180.25302 174.142658 180.3728 173.853483 180.3728 173.552 
C 180.3728 173.250517 180.25302 172.961342 180.039839 172.748161 
C 179.826658 172.53498 179.537483 172.4152 179.236 172.4152 
C 178.934517 172.4152 178.645342 172.53498 178.432161 172.748161 
C 178.21898 172.961342 178.0992 173.250517 178.0992 173.552 
C 178.0992 173.853483 178.21898 174.142658 178.432161 174.355839 
C 178.645342 174.56902 178.934517 174.6888 179.236 174.6888 
z
" clip-path="url(#p81bee07297)" style="stroke: #000000; stroke-linejoin: miter"/>
   </g>
   <g id="patch_6">
    <path d="M 14.4 219.024 
L 71.24 219.024 
L 71.24 139.448 
L 14.4 139.448 
z
" clip-path="url(#p81bee07297)" style="fill: #ffffff; stroke: #ffffff; stroke-linejoin: miter"/>
   </g>
   <g id="patch_7">
    <path d="M 42.82 180.3728 
C 43.121483 180.3728 43.410658 180.25302 43.623839 180.039839 
C 43.83702 179.826658 43.9568 179.537483 43.9568 179.236 
C 43.9568 178.934517 43.83702 178.645342 43.623839 178.432161 
C 43.410658 178.21898 43.121483 178.0992 42.82 178.0992 
C 42.518517 178.0992 42.229342 178.21898 42.016161 178.432161 
C 41.80298 178.645342 41.6832 178.934517 41.6832 179.236 
C 41.6832 179.537483 41.80298 179.826658 42.016161 180.039839 
C 42.229342 180.25302 42.518517 180.3728 42.82 180.3728 
z
" clip-path="url(#p81bee07297)" style="stroke: #000000; stroke-linejoin: miter"/>
   </g>
   <g id="patch_8">
    <path d="M 71.24 219.024 
L 128.08 219.024 
L 128.08 184.92 
L 71.24 184.92 
z
" clip-path="url(#p81bee07297)" style="fill: #ffffff; stroke: #ffffff; stroke-linejoin: miter"/>
   </g>
   <g id="patch_9">
    <path d="M 99.66 203.1088 
C 99.961483 203.1088 100.250658 202.98902 100.463839 202.775839 
C 100.67702 202.562658 100.7968 202.273483 100.7968 201.972 
C 100.7968 201.670517 100.67702 201.381342 100.463839 201.168161 
C 100.250658 200.95498 99.961483 200.8352 99.66 200.8352 
C 99.358517 200.8352 99.069342 200.95498 98.856161 201.168161 
C 98.64298 201.381342 98.5232 201.670517 98.5232 201.972 
C 98.5232 202.273483 98.64298 202.562658 98.856161 202.775839 
C 99.069342 202.98902 99.358517 203.1088 99.66 203.1088 
z
" clip-path="url(#p81bee07297)" style="stroke: #000000; stroke-linejoin: miter"/>
   </g>
   <g id="patch_10">
    <path d="M 71.24 184.92 
L 139.448 184.92 
L 139.448 93.976 
L 71.24 93.976 
z
" clip-path="url(#p81bee07297)" style="fill: #ffffff; stroke: #ffffff; stroke-linejoin: miter"/>
   </g>
   <g id="patch_11">
    <path d="M 105.344 140.5848 
C 105.645483 140.5848 105.934658 140.46502 106.147839 140.251839 
C 106.36102 140.038658 106.4808 139.749483 106.4808 139.448 
C 106.4808 139.146517 106.36102 138.857342 106.147839 138.644161 
C 105.934658 138.43098 105.645483 138.3112 105.344 138.3112 
C 105.042517 138.3112 104.753342 138.43098 104.540161 138.644161 
C 104.32698 138.857342 104.2072 139.146517 104.2072 139.448 
C 104.2072 139.749483 104.32698 140.038658 104.540161 140.251839 
C 104.753342 140.46502 105.042517 140.5848 105.344 140.5848 
z
" clip-path="url(#p81bee07297)" style="stroke: #000000; stroke-linejoin: miter"/>
   </g>
   <g id="patch_12">
    <path d="M 14.4 93.976 
L 150.816 93.976 
L 150.816 59.872 
L 14.4 59.872 
z
" clip-path="url(#p81bee07297)" style="fill: #ffffff; stroke: #ffffff; stroke-linejoin: miter"/>
   </g>
   <g id="patch_13">
    <path d="M 82.608 78.0608 
C 82.909483 78.0608 83.198658 77.94102 83.411839 77.727839 
C 83.62502 77.514658 83.7448 77.225483 83.7448 76.924 
C 83.7448 76.622517 83.62502 76.333342 83.411839 76.120161 
C 83.198658 75.90698 82.909483 75.7872 82.608 75.7872 
C 82.306517 75.7872 82.017342 75.90698 81.804161 76.120161 
C 81.59098 76.333342 81.4712 76.622517 81.4712 76.924 
C 81.4712 77.225483 81.59098 77.514658 81.804161 77.727839 
C 82.017342 77.94102 82.306517 78.0608 82.608 78.0608 
z
" clip-path="url(#p81bee07297)" style="stroke: #000000; stroke-linejoin: miter"/>
   </g>
   <g id="patch_14">
    <path d="M 150.816 105.344 
L 207.656 105.344 
L 207.656 48.504 
L 150.816 48.504 
z
" clip-path="url(#p81bee07297)" style="fill: #ffffff; stroke: #ffffff; stroke-linejoin: miter"/>
   </g>
   <g id="patch_15">
    <path d="M 179.236 78.0608 
C 179.537483 78.0608 179.826658 77.94102 180.039839 77.727839 
C 180.25302 77.514658 180.3728 77.225483 180.3728 76.924 
C 180.3728 76.622517 180.25302 76.333342 180.039839 76.120161 
C 179.826658 75.90698 179.537483 75.7872 179.236 75.7872 
C 178.934517 75.7872 178.645342 75.90698 178.432161 76.120161 
C 178.21898 76.333342 178.0992 76.622517 178.0992 76.924 
C 178.0992 77.225483 178.21898 77.514658 178.432161 77.727839 
C 178.645342 77.94102 178.934517 78.0608 179.236 78.0608 
z
" clip-path="url(#p81bee07297)" style="stroke: #000000; stroke-linejoin: miter"/>
   </g>
   <g id="patch_16">
    <path d="M 14.4 139.448 
L 59.872 139.448 
L 59.872 93.976 
L 14.4 93.976 
z
" clip-path="url(#p81bee07297)" style="fill: #ffffff; stroke: #ffffff; stroke-linejoin: miter"/>
   </g>
   <g id="patch_17">
    <path d="M 37.136 117.8488 
C 37.437483 117.8488 37.726658 117.72902 37.939839 117.515839 
C 38.15302 117.302658 38.2728 117.013483 38.2728 116.712 
C 38.2728 116.410517 38.15302 116.121342 37.939839 115.908161 
C 37.726658 115.69498 37.437483 115.5752 37.136 115.5752 
C 36.834517 115.5752 36.545342 115.69498 36.332161 115.908161 
C 36.11898 116.121342 35.9992 116.410517 35.9992 116.712 
C 35.9992 117.013483 36.11898 117.302658 36.332161 117.515839 
C 36.545342 117.72902 36.834517 117.8488 37.136 117.8488 
z
" clip-path="url(#p81bee07297)" style="stroke: #000000; stroke-linejoin: miter"/>
   </g>
   <g id="patch_18">
    <path d="M 14.4 59.872 
L 116.712 59.872 
L 116.712 37.136 
L 14.4 37.136 
z
" clip-path="url(#p81bee07297)" style="fill: #ffffff; stroke: #ffffff; stroke-linejoin: miter"/>
   </g>
   <g id="patch_19">
    <path d="M 65.556 49.6408 
C 65.857483 49.6408 66.146658 49.52102 66.359839 49.307839 
C 66.57302 49.094658 66.6928 48.805483 66.6928 48.504 
C 66.6928 48.202517 66.57302 47.913342 66.359839 47.700161 
C 66.146658 47.48698 65.857483 47.3672 65.556 47.3672 
C 65.254517 47.3672 64.965342 47.48698 64.752161 47.700161 
C 64.53898 47.913342 64.4192 48.202517 64.4192 48.504 
C 64.4192 48.805483 64.53898 49.094658 64.752161 49.307839 
C 64.965342 49.52102 65.254517 49.6408 65.556 49.6408 
z
" clip-path="url(#p81bee07297)" style="stroke: #000000; stroke-linejoin: miter"/>
   </g>
   <g id="patch_20">
    <path d="M 14.4 37.136 
L 150.816 37.136 
L 150.816 14.4 
L 14.4 14.4 
z
" clip-path="url(#p81bee07297)" style="fill: #ffffff; stroke: #ffffff; stroke-linejoin: miter"/>
   </g>
   <g id="patch_21">
    <path d="M 82.608 26.9048 
C 82.909483 26.9048 83.198658 26.78502 83.411839 26.571839 
C 83.62502 26.358658 83.7448 26.069483 83.7448 25.768 
C 83.7448 25.466517 83.62502 25.177342 83.411839 24.964161 
C 83.198658 24.75098 82.909483 24.6312 82.608 24.6312 
C 82.306517 24.6312 82.017342 24.75098 81.804161 24.964161 
C 81.59098 25.177342 81.4712 25.466517 81.4712 25.768 
C 81.4712 26.069483 81.59098 26.358658 81.804161 26.571839 
C 82.017342 26.78502 82.306517 26.9048 82.608 26.9048 
z
" clip-path="url(#p81bee07297)" style="stroke: #000000; stroke-linejoin: miter"/>
   </g>
   <g id="patch_22">
    <path d="M 219.024 241.76 
L 241.76 241.76 
L 241.76 196.288 
L 219.024 196.288 
z
" clip-path="url(#p81bee07297)" style="fill: #ffffff; stroke: #ffffff; stroke-linejoin: miter"/>
   </g>
   <g id="patch_23">
    <path d="M 230.392 220.1608 
C 230.693483 220.1608 230.982658 220.04102 231.195839 219.827839 
C 231.40902 219.614658 231.5288 219.325483 231.5288 219.024 
C 231.5288 218.722517 231.40902 218.433342 231.195839 218.220161 
C 230.982658 218.00698 230.693483 217.8872 230.392 217.8872 
C 230.090517 217.8872 229.801342 218.00698 229.588161 218.220161 
C 229.37498 218.433342 229.2552 218.722517 229.2552 219.024 
C 229.2552 219.325483 229.37498 219.614658 229.588161 219.827839 
C 229.801342 220.04102 230.090517 220.1608 230.392 220.1608 
z
" clip-path="url(#p81bee07297)" style="stroke: #000000; stroke-linejoin: miter"/>
   </g>
   <g id="patch_24">
    <path d="M 150.816 48.504 
L 196.288 48.504 
L 196.288 14.4 
L 150.816 14.4 
z
" clip-path="url(#p81bee07297)" style="fill: #ffffff; stroke: #ffffff; stroke-linejoin: miter"/>
   </g>
   <g id="patch_25">
    <path d="M 173.552 32.5888 
C 173.853483 32.5888 174.142658 32.46902 174.355839 32.255839 
C 174.56902 32.042658 174.6888 31.753483 174.6888 31.452 
C 174.6888 31.150517 174.56902 30.861342 174.355839 30.648161 
C 174.142658 30.43498 173.853483 30.3152 173.552 30.3152 
C 173.250517 30.3152 172.961342 30.43498 172.748161 30.648161 
C 172.53498 30.861342 172.4152 31.150517 172.4152 31.452 
C 172.4152 31.753483 172.53498 32.042658 172.748161 32.255839 
C 172.961342 32.46902 173.250517 32.5888 173.552 32.5888 
z
" clip-path="url(#p81bee07297)" style="stroke: #000000; stroke-linejoin: miter"/>
   </g>
   <g id="patch_26">
    <path d="M 207.656 105.344 
L 241.76 105.344 
L 241.76 37.136 
L 207.656 37.136 
z
" clip-path="url(#p81bee07297)" style="fill: #ffffff; stroke: #ffffff; stroke-linejoin: miter"/>
   </g>
   <g id="patch_27">
    <path d="M 224.708 72.3768 
C 225.009483 72.3768 225.298658 72.25702 225.511839 72.043839 
C 225.72502 71.830658 225.8448 71.541483 225.8448 71.24 
C 225.8448 70.938517 225.72502 70.649342 225.511839 70.436161 
C 225.298658 70.22298 225.009483 70.1032 224.708 70.1032 
C 224.406517 70.1032 224.117342 70.22298 223.904161 70.436161 
C 223.69098 70.649342 223.5712 70.938517 223.5712 71.24 
C 223.5712 71.541483 223.69098 71.830658 223.904161 72.043839 
C 224.117342 72.25702 224.406517 72.3768 224.708 72.3768 
z
" clip-path="url(#p81bee07297)" style="stroke: #000000; stroke-linejoin: miter"/>
   </g>
   <g id="patch_28">
    <path d="M 219.024 196.288 
L 241.76 196.288 
L 241.76 128.08 
L 219.024 128.08 
z
" clip-path="url(#p81bee07297)" style="fill: #ffffff; stroke: #ffffff; stroke-linejoin: miter"/>
   </g>
   <g id="patch_29">
    <path d="M 230.392 163.3208 
C 230.693483 163.3208 230.982658 163.20102 231.195839 162.987839 
C 231.40902 162.774658 231.5288 162.485483 231.5288 162.184 
C 231.5288 161.882517 231.40902 161.593342 231.195839 161.380161 
C 230.982658 161.16698 230.693483 161.0472 230.392 161.0472 
C 230.090517 161.0472 229.801342 161.16698 229.588161 161.380161 
C 229.37498 161.593342 229.2552 161.882517 229.2552 162.184 
C 229.2552 162.485483 229.37498 162.774658 229.588161 162.987839 
C 229.801342 163.20102 230.090517 163.3208 230.392 163.3208 
z
" clip-path="url(#p81bee07297)" style="stroke: #000000; stroke-linejoin: miter"/>
   </g>
   <g id="patch_30">
    <path d="M 59.872 139.448 
L 71.24 139.448 
L 71.24 128.08 
L 59.872 128.08 
L 59.872 139.448 
z
" clip-path="url(#p81bee07297)" style="fill: none; stroke: #000000; stroke-linejoin: miter"/>
   </g>
   <g id="patch_31">
    <path d="M 59.872 128.08 
L 71.24 128.08 
L 71.24 116.712 
L 59.872 116.712 
L 59.872 128.08 
z
" clip-path="url(#p81bee07297)" style="fill: none; stroke: #000000; stroke-linejoin: miter"/>
   </g>
   <g id="patch_32">
    <path d="M 59.872 116.712 
L 71.24 116.712 
L 71.24 105.344 
L 59.872 105.344 
L 59.872 116.712 
z
" clip-path="url(#p81bee07297)" style="fill: none; stroke: #000000; stroke-linejoin: miter"/>
   </g>
   <g id="patch_33">
    <path d="M 59.872 105.344 
L 71.24 105.344 
L 71.24 93.976 
L 59.872 93.976 
L 59.872 105.344 
z
" clip-path="url(#p81bee07297)" style="fill: none; stroke: #000000; stroke-linejoin: miter"/>
   </g>
   <g id="patch_34">
    <path d="M 116.712 59.872 
L 128.08 59.872 
L 128.08 48.504 
L 116.712 48.504 
L 116.712 59.872 
z
" clip-path="url(#p81bee07297)" style="fill: none; stroke: #000000; stroke-linejoin: miter"/>
   </g>
   <g id="patch_35">
    <path d="M 116.712 48.504 
L 128.08 48.504 
L 128.08 37.136 
L 116.712 37.136 
L 116.712 48.504 
z
" clip-path="url(#p81bee07297)" style="fill: none; stroke: #000000; stroke-linejoin: miter"/>
   </g>
   <g id="patch_36">
    <path d="M 128.08 219.024 
L 139.448 219.024 
L 139.448 207.656 
L 128.08 207.656 
L 128.08 219.024 
z
" clip-path="url(#p81bee07297)" style="fill: none; stroke: #000000; stroke-linejoin: miter"/>
   </g>
   <g id="patch_37">
    <path d="M 128.08 207.656 
L 139.448 207.656 
L 139.448 196.288 
L 128.08 196.288 
L 128.08 207.656 
z
" clip-path="url(#p81bee07297)" style="fill: none; stroke: #000000; stroke-linejoin: miter"/>
   </g>
   <g id="patch_38">
    <path d="M 128.08 196.288 
L 139.448 196.288 
L 139.448 184.92 
L 128.08 184.92 
L 128.08 196.288 
z
" clip-path="url(#p81bee07297)" style="fill: none; stroke: #000000; stroke-linejoin: miter"/>
   </g>
   <g id="patch_39">
    <path d="M 128.08 59.872 
L 139.448 59.872 
L 139.448 48.504 
L 128.08 48.504 
L 128.08 59.872 
z
" clip-path="url(#p81bee07297)" style="fill: none; stroke: #000000; stroke-linejoin: miter"/>
   </g>
   <g id="patch_40">
    <path d="M 128.08 48.504 
L 139.448 48.504 
L 139.448 37.136 
L 128.08 37.136 
L 128.08 48.504 
z
" clip-path="url(#p81bee07297)" style="fill: none; stroke: #000000; stroke-linejoin: miter"/>
   </g>
   <g id="patch_41">
    <path d="M 139.448 105.344 
L 150.816 105.344 
L 150.816 93.976 
L 139.448 93.976 
L 139.448 105.344 
z
" clip-path="url(#p81bee07297)" style="fill: none; stroke: #000000; stroke-linejoin: miter"/>
   </g>
   <g id="patch_42">
    <path d="M 139.448 59.872 
L 150.816 59.872 
L 150.816 48.504 
L 139.448 48.504 
L 139.448 59.872 
z
" clip-path="url(#p81bee07297)" style="fill: none; stroke: #000000; stroke-linejoin: miter"/>
   </g>
   <g id="patch_43">
    <path d="M 139.448 48.504 
L 150.816 48.504 
L 150.816 37.136 
L 139.448 37.136 
L 139.448 48.504 
z
" clip-path="url(#p81bee07297)" style="fill: none; stroke: #000000; stroke-linejoin: miter"/>
   </g>
   <g id="patch_44">
    <path d="M 196.288 48.504 
L 207.656 48.504 
L 207.656 37.136 
L 196.288 37.136 
L 196.288 48.504 
z
" clip-path="url(#p81bee07297)" style="fill: none; stroke: #000000; stroke-linejoin: miter"/>
   </g>
   <g id="patch_45">
    <path d="M 196.288 37.136 
L 207.656 37.136 
L 207.656 25.768 
L 196.288 25.768 
L 196.288 37.136 
z
" clip-path="url(#p81bee07297)" style="fill: none; stroke: #000000; stroke-linejoin: miter"/>
   </g>
   <g id="patch_46">
    <path d="M 196.288 25.768 
L 207.656 25.768 
L 207.656 14.4 
L 196.288 14.4 
L 196.288 25.768 
z
" clip-path="url(#p81bee07297)" style="fill: none; stroke: #000000; stroke-linejoin: miter"/>
   </g>
   <g id="patch_47">
    <path d="M 207.656 37.136 
L 219.024 37.136 
L 219.024 25.768 
L 207.656 25.768 
L 207.656 37.136 
z
" clip-path="url(#p81bee07297)" style="fill: none; stroke: #000000; stroke-linejoin: miter"/>
   </g>
   <g id="patch_48">
    <path d="M 207.656 25.768 
L 219.024 25.768 
L 219.024 14.4 
L 207.656 14.4 
L 207.656 25.768 
z
" clip-path="url(#p81bee07297)" style="fill: none; stroke: #000000; stroke-linejoin: miter"/>
   </g>
   <g id="patch_49">
    <path d="M 219.024 128.08 
L 230.392 128.08 
L 230.392 116.712 
L 219.024 116.712 
L 219.024 128.08 
z
" clip-path="url(#p81bee07297)" style="fill: none; stroke: #000000; stroke-linejoin: miter"/>
   </g>
   <g id="patch_50">
    <path d="M 219.024 116.712 
L 230.392 116.712 
L 230.392 105.344 
L 219.024 105.344 
L 219.024 116.712 
z
" clip-path="url(#p81bee07297)" style="fill: none; stroke: #000000; stroke-linejoin: miter"/>
   </g>
   <g id="patch_51">
    <path d="M 219.024 37.136 
L 230.392 37.136 
L 230.392 25.768 
L 219.024 25.768 
L 219.024 37.136 
z
" clip-path="url(#p81bee07297)" style="fill: none; stroke: #000000; stroke-linejoin: miter"/>
   </g>
   <g id="patch_52">
    <path d="M 219.024 25.768 
L 230.392 25.768 
L 230.392 14.4 
L 219.024 14.4 
L 219.024 25.768 
z
" clip-path="url(#p81bee07297)" style="fill: none; stroke: #000000; stroke-linejoin: miter"/>
   </g>
   <g id="patch_53">
    <path d="M 230.392 128.08 
L 241.76 128.08 
L 241.76 116.712 
L 230.392 116.712 
L 230.392 128.08 
z
" clip-path="url(#p81bee07297)" style="fill: none; stroke: #000000; stroke-linejoin: miter"/>
   </g>
   <g id="patch_54">
    <path d="M 230.392 116.712 
L 241.76 116.712 
L 241.76 105.344 
L 230.392 105.344 
L 230.392 116.712 
z
" clip-path="url(#p81bee07297)" style="fill: none; stroke: #000000; stroke-linejoin: miter"/>
   </g>
   <g id="patch_55">
    <path d="M 230.392 37.136 
L 241.76 37.136 
L 241.76 25.768 
L 230.392 25.768 
L 230.392 37.136 
z
" clip-path="url(#p81bee07297)" style="fill: none; stroke: #000000; stroke-linejoin: miter"/>
   </g>
   <g id="patch_56">
    <path d="M 230.392 25.768 
L 241.76 25.768 
L 241.76 14.4 
L 230.392 14.4 
L 230.392 25.768 
z
" clip-path="url(#p81bee07297)" style="fill: none; stroke: #000000; stroke-linejoin: miter"/>
   </g>
   <g id="line2d_1">
    <path d="M 14.4 241.76 
L 139.448 241.76 
" clip-path="url(#p81bee07297)" style="fill: none; stroke: #000000; stroke-width: 1.5; stroke-linecap: square"/>
   </g>
   <g id="line2d_2">
    <path d="M 14.4 241.76 
L 14.4 219.024 
" clip-path="url(#p81bee07297)" style="fill: none; stroke: #000000; stroke-width: 1.5; stroke-linecap: square"/>
   </g>
   <g id="line2d_3">
    <path d="M 139.448 241.76 
L 139.448 219.024 
" clip-path="url(#p81bee07297)" style="fill: none; stroke: #000000; stroke-width: 1.5; stroke-linecap: square"/>
   </g>
   <g id="line2d_4">
    <path d="M 14.4 219.024 
L 139.448 219.024 
" clip-path="url(#p81bee07297)" style="fill: none; stroke: #000000; stroke-width: 1.5; stroke-linecap: square"/>
   </g>
   <g id="line2d_5">
    <path d="M 139.448 241.76 
L 219.024 241.76 
" clip-path="url(#p81bee07297)" style="fill: none; stroke: #000000; stroke-width: 1.5; stroke-linecap: square"/>
   </g>
   <g id="line2d_6">
    <path d="M 139.448 241.76 
L 139.448 105.344 
" clip-path="url(#p81bee07297)" style="fill: none; stroke: #000000; stroke-width: 1.5; stroke-linecap: square"/>
   </g>
   <g id="line2d_7">
    <path d="M 219.024 241.76 
L 219.024 105.344 
" clip-path="url(#p81bee07297)" style="fill: none; stroke: #000000; stroke-width: 1.5; stroke-linecap: square"/>
   </g>
   <g id="line2d_8">
    <path d="M 139.448 105.344 
L 219.024 105.344 
" clip-path="url(#p81bee07297)" style="fill: none; stroke: #000000; stroke-width: 1.5; stroke-linecap: square"/>
   </g>
   <g id="line2d_9">
    <path d="M 14.4 219.024 
L 71.24 219.024 
" clip-path="url(#p81bee07297)" style="fill: none; stroke: #000000; stroke-width: 1.5; stroke-linecap: square"/>
   </g>
   <g id="line2d_10">
    <path d="M 14.4 219.024 
L 14.4 139.448 
" clip-path="url(#p81bee07297)" style="fill: none; stroke: #000000; stroke-width: 1.5; stroke-linecap: square"/>
   </g>
   <g id="line2d_11">
    <path d="M 71.24 219.024 
L 71.24 139.448 
" clip-path="url(#p81bee07297)" style="fill: none; stroke: #000000; stroke-width: 1.5; stroke-linecap: square"/>
   </g>
   <g id="line2d_12">
    <path d="M 14.4 139.448 
L 71.24 139.448 
" clip-path="url(#p81bee07297)" style="fill: none; stroke: #000000; stroke-width: 1.5; stroke-linecap: square"/>
   </g>
   <g id="line2d_13">
    <path d="M 71.24 219.024 
L 128.08 219.024 
" clip-path="url(#p81bee07297)" style="fill: none; stroke: #000000; stroke-width: 1.5; stroke-linecap: square"/>
   </g>
   <g id="line2d_14">
    <path d="M 71.24 219.024 
L 71.24 184.92 
" clip-path="url(#p81bee07297)" style="fill: none; stroke: #000000; stroke-width: 1.5; stroke-linecap: square"/>
   </g>
   <g id="line2d_15">
    <path d="M 128.08 219.024 
L 128.08 184.92 
" clip-path="url(#p81bee07297)" style="fill: none; stroke: #000000; stroke-width: 1.5; stroke-linecap: square"/>
   </g>
   <g id="line2d_16">
    <path d="M 71.24 184.92 
L 128.08 184.92 
" clip-path="url(#p81bee07297)" style="fill: none; stroke: #000000; stroke-width: 1.5; stroke-linecap: square"/>
   </g>
   <g id="line2d_17">
    <path d="M 71.24 184.92 
L 139.448 184.92 
" clip-path="url(#p81bee07297)" style="fill: none; stroke: #000000; stroke-width: 1.5; stroke-linecap: square"/>
   </g>
   <g id="line2d_18">
    <path d="M 71.24 184.92 
L 71.24 93.976 
" clip-path="url(#p81bee07297)" style="fill: none; stroke: #000000; stroke-width: 1.5; stroke-linecap: square"/>
   </g>
   <g id="line2d_19">
    <path d="M 139.448 184.92 
L 139.448 93.976 
" clip-path="url(#p81bee07297)" style="fill: none; stroke: #000000; stroke-width: 1.5; stroke-linecap: square"/>
   </g>
   <g id="line2d_20">
    <path d="M 71.24 93.976 
L 139.448 93.976 
" clip-path="url(#p81bee07297)" style="fill: none; stroke: #000000; stroke-width: 1.5; stroke-linecap: square"/>
   </g>
   <g id="line2d_21">
    <path d="M 14.4 93.976 
L 150.816 93.976 
" clip-path="url(#p81bee07297)" style="fill: none; stroke: #000000; stroke-width: 1.5; stroke-linecap: square"/>
   </g>
   <g id="line2d_22">
    <path d="M 14.4 93.976 
L 14.4 59.872 
" clip-path="url(#p81bee07297)" style="fill: none; stroke: #000000; stroke-width: 1.5; stroke-linecap: square"/>
   </g>
   <g id="line2d_23">
    <path d="M 150.816 93.976 
L 150.816 59.872 
" clip-path="url(#p81bee07297)" style="fill: none; stroke: #000000; stroke-width: 1.5; stroke-linecap: square"/>
   </g>
   <g id="line2d_24">
    <path d="M 14.4 59.872 
L 150.816 59.872 
" clip-path="url(#p81bee07297)" style="fill: none; stroke: #000000; stroke-width: 1.5; stroke-linecap: square"/>
   </g>
   <g id="line2d_25">
    <path d="M 150.816 105.344 
L 207.656 105.344 
" clip-path="url(#p81bee07297)" style="fill: none; stroke: #000000; stroke-width: 1.5; stroke-linecap: square"/>
   </g>
   <g id="line2d_26">
    <path d="M 150.816 105.344 
L 150.816 48.504 
" clip-path="url(#p81bee07297)" style="fill: none; stroke: #000000; stroke-width: 1.5; stroke-linecap: square"/>
   </g>
   <g id="line2d_27">
    <path d="M 207.656 105.344 
L 207.656 48.504 
" clip-path="url(#p81bee07297)" style="fill: none; stroke: #000000; stroke-width: 1.5; stroke-linecap: square"/>
   </g>
   <g id="line2d_28">
    <path d="M 150.816 48.504 
L 207.656 48.504 
" clip-path="url(#p81bee07297)" style="fill: none; stroke: #000000; stroke-width: 1.5; stroke-linecap: square"/>
   </g>
   <g id="line2d_29">
    <path d="M 14.4 139.448 
L 59.872 139.448 
" clip-path="url(#p81bee07297)" style="fill: none; stroke: #000000; stroke-width: 1.5; stroke-linecap: square"/>
   </g>
   <g id="line2d_30">
    <path d="M 14.4 139.448 
L 14.4 93.976 
" clip-path="url(#p81bee07297)" style="fill: none; stroke: #000000; stroke-width: 1.5; stroke-linecap: square"/>
   </g>
   <g id="line2d_31">
    <path d="M 59.872 139.448 
L 59.872 93.976 
" clip-path="url(#p81bee07297)" style="fill: none; stroke: #000000; stroke-width: 1.5; stroke-linecap: square"/>
   </g>
   <g id="line2d_32">
    <path d="M 14.4 93.976 
L 59.872 93.976 
" clip-path="url(#p81bee07297)" style="fill: none; stroke: #000000; stroke-width: 1.5; stroke-linecap: square"/>
   </g>
   <g id="line2d_33">
    <path d="M 14.4 59.872 
L 116.712 59.872 
" clip-path="url(#p81bee07297)" style="fill: none; stroke: #000000; stroke-width: 1.5; stroke-linecap: square"/>
   </g>
   <g id="line2d_34">
    <path d="M 14.4 59.872 
L 14.4 37.136 
" clip-path="url(#p81bee07297)" style="fill: none; stroke: #000000; stroke-width: 1.5; stroke-linecap: square"/>
   </g>
   <g id="line2d_35">
    <path d="M 116.712 59.872 
L 116.712 37.136 
" clip-path="url(#p81bee07297)" style="fill: none; stroke: #000000; stroke-width: 1.5; stroke-linecap: square"/>
   </g>
   <g id="line2d_36">
    <path d="M 14.4 37.136 
L 116.712 37.136 
" clip-path="url(#p81bee07297)" style="fill: none; stroke: #000000; stroke-width: 1.5; stroke-linecap: square"/>
   </g>
   <g id="line2d_37">
    <path d="M 14.4 37.136 
L 150.816 37.136 
" clip-path="url(#p81bee07297)" style="fill: none; stroke: #000000; stroke-width: 1.5; stroke-linecap: square"/>
   </g>
   <g id="line2d_38">
    <path d="M 14.4 37.136 
L 14.4 14.4 
" clip-path="url(#p81bee07297)" style="fill: none; stroke: #000000; stroke-width: 1.5; stroke-linecap: square"/>
   </g>
   <g id="line2d_39">
    <path d="M 150.816 37.136 
L 150.816 14.4 
" clip-path="url(#p81bee07297)" style="fill: none; stroke: #000000; stroke-width: 1.5; stroke-linecap: square"/>
   </g>
   <g id="line2d_40">
    <path d="M 14.4 14.4 
L 150.816 14.4 
" clip-path="url(#p81bee07297)" style="fill: none; stroke: #000000; stroke-width: 1.5; stroke-linecap: square"/>
   </g>
   <g id="line2d_41">
    <path d="M 219.024 241.76 
L 241.76 241.76 
" clip-path="url(#p81bee07297)" style="fill: none; stroke: #000000; stroke-width: 1.5; stroke-linecap: square"/>
   </g>
   <g id="line2d_42">
    <path d="M 219.024 241.76 
L 219.024 196.288 
" clip-path="url(#p81bee07297)" style="fill: none; stroke: #000000; stroke-width: 1.5; stroke-linecap: square"/>
   </g>
   <g id="line2d_43">
    <path d="M 241.76 241.76 
L 241.76 196.288 
" clip-path="url(#p81bee07297)" style="fill: none; stroke: #000000; stroke-width: 1.5; stroke-linecap: square"/>
   </g>
   <g id="line2d_44">
    <path d="M 219.024 196.288 
L 241.76 196.288 
" clip-path="url(#p81bee07297)" style="fill: none; stroke: #000000; stroke-width: 1.5; stroke-linecap: square"/>
   </g>
   <g id="line2d_45">
    <path d="M 150.816 48.504 
L 196.288 48.504 
" clip-path="url(#p81bee07297)" style="fill: none; stroke: #000000; stroke-width: 1.5; stroke-linecap: square"/>
   </g>
   <g id="line2d_46">
    <path d="M 150.816 48.504 
L 150.816 14.4 
" clip-path="url(#p81bee07297)" style="fill: none; stroke: #000000; stroke-width: 1.5; stroke-linecap: square"/>
   </g>
   <g id="line2d_47">
    <path d="M 196.288 48.504 
L 196.288 14.4 
" clip-path="url(#p81bee07297)" style="fill: none; stroke: #000000; stroke-width: 1.5; stroke-linecap: square"/>
   </g>
   <g id="line2d_48">
    <path d="M 150.816 14.4 
L 196.288 14.4 
" clip-path="url(#p81bee07297)" style="fill: none; stroke: #000000; stroke-width: 1.5; stroke-linecap: square"/>
   </g>
   <g id="line2d_49">
    <path d="M 207.656 105.344 
L 241.76 105.344 
" clip-path="url(#p81bee07297)" style="fill: none; stroke: #000000; stroke-width: 1.5; stroke-linecap: square"/>
   </g>
   <g id="line2d_50">
    <path d="M 207.656 105.344 
L 207.656 37.136 
" clip-path="url(#p81bee07297)" style="fill: none; stroke: #000000; stroke-width: 1.5; stroke-linecap: square"/>
   </g>
   <g id="line2d_51">
    <path d="M 241.76 105.344 
L 241.76 37.136 
" clip-path="url(#p81bee07297)" style="fill: none; stroke: #000000; stroke-width: 1.5; stroke-linecap: square"/>
   </g>
   <g id="line2d_52">
    <path d="M 207.656 37.136 
L 241.76 37.136 
" clip-path="url(#p81bee07297)" style="fill: none; stroke: #000000; stroke-width: 1.5; stroke-linecap: square"/>
   </g>
   <g id="line2d_53">
    <path d="M 219.024 196.288 
L 241.76 196.288 
" clip-path="url(#p81bee07297)" style="fill: none; stroke: #000000; stroke-width: 1.5; stroke-linecap: square"/>
   </g>
   <g id="line2d_54">
    <path d="M 219.024 196.288 
L 219.024 128.08 
" clip-path="url(#p81bee07297)" style="fill: none; stroke: #000000; stroke-width: 1.5; stroke-linecap: square"/>
   </g>
   <g id="line2d_55">
    <path d="M 241.76 196.288 
L 241.76 128.08 
" clip-path="url(#p81bee07297)" style="fill: none; stroke: #000000; stroke-width: 1.5; stroke-linecap: square"/>
   </g>
   <g id="line2d_56">
    <path d="M 219.024 128.08 
L 241.76 128.08 
" clip-path="url(#p81bee07297)" style="fill: none; stroke: #000000; stroke-width: 1.5; stroke-linecap: square"/>
   </g>
   <g id="line2d_57">
    <path d="M 59.872 139.448 
L 71.24 128.08 
" clip-path="url(#p81bee07297)" style="fill: none; stroke: #000000; stroke-linecap: square"/>
   </g>
   <g id="line2d_58">
    <path d="M 71.24 139.448 
L 59.872 128.08 
" clip-path="url(#p81bee07297)" style="fill: none; stroke: #000000; stroke-linecap: square"/>
   </g>
   <g id="line2d_59">
    <path d="M 59.872 128.08 
L 71.24 116.712 
" clip-path="url(#p81bee07297)" style="fill: none; stroke: #000000; stroke-linecap: square"/>
   </g>
   <g id="line2d_60">
    <path d="M 71.24 128.08 
L 59.872 116.712 
" clip-path="url(#p81bee07297)" style="fill: none; stroke: #000000; stroke-linecap: square"/>
   </g>
   <g id="line2d_61">
    <path d="M 59.872 116.712 
L 71.24 105.344 
" clip-path="url(#p81bee07297)" style="fill: none; stroke: #000000; stroke-linecap: square"/>
   </g>
   <g id="line2d_62">
    <path d="M 71.24 116.712 
L 59.872 105.344 
" clip-path="url(#p81bee07297)" style="fill: none; stroke: #000000; stroke-linecap: square"/>
   </g>
   <g id="line2d_63">
    <path d="M 59.872 105.344 
L 71.24 93.976 
" clip-path="url(#p81bee07297)" style="fill: none; stroke: #000000; stroke-linecap: square"/>
   </g>
   <g id="line2d_64">
    <path d="M 71.24 105.344 
L 59.872 93.976 
" clip-path="url(#p81bee07297)" style="fill: none; stroke: #000000; stroke-linecap: square"/>
   </g>
   <g id="line2d_65">
    <path d="M 116.712 59.872 
L 128.08 48.504 
" clip-path="url(#p81bee07297)" style="fill: none; stroke: #000000; stroke-linecap: square"/>
   </g>
   <g id="line2d_66">
    <path d="M 128.08 59.872 
L 116.712 48.504 
" clip-path="url(#p81bee07297)" style="fill: none; stroke: #000000; stroke-linecap: square"/>
   </g>
   <g id="line2d_67">
    <path d="M 116.712 48.504 
L 128.08 37.136 
" clip-path="url(#p81bee07297)" style="fill: none; stroke: #000000; stroke-linecap: square"/>
   </g>
   <g id="line2d_68">
    <path d="M 128.08 48.504 
L 116.712 37.136 
" clip-path="url(#p81bee07297)" style="fill: none; stroke: #000000; stroke-linecap: square"/>
   </g>
   <g id="line2d_69">
    <path d="M 128.08 219.024 
L 139.448 207.656 
" clip-path="url(#p81bee07297)" style="fill: none; stroke: #000000; stroke-linecap: square"/>
   </g>
   <g id="line2d_70">
    <path d="M 139.448 219.024 
L 128.08 207.656 
" clip-path="url(#p81bee07297)" style="fill: none; stroke: #000000; stroke-linecap: square"/>
   </g>
   <g id="line2d_71">
    <path d="M 128.08 207.656 
L 139.448 196.288 
" clip-path="url(#p81bee07297)" style="fill: none; stroke: #000000; stroke-linecap: square"/>
   </g>
   <g id="line2d_72">
    <path d="M 139.448 207.656 
L 128.08 196.288 
" clip-path="url(#p81bee07297)" style="fill: none; stroke: #000000; stroke-linecap: square"/>
   </g>
   <g id="line2d_73">
    <path d="M 128.08 196.288 
L 139.448 184.92 
" clip-path="url(#p81bee07297)" style="fill: none; stroke: #000000; stroke-linecap: square"/>
   </g>
   <g id="line2d_74">
    <path d="M 139.448 196.288 
L 128.08 184.92 
" clip-path="url(#p81bee07297)" style="fill: none; stroke: #000000; stroke-linecap: square"/>
   </g>
   <g id="line2d_75">
    <path d="M 128.08 59.872 
L 139.448 48.504 
" clip-path="url(#p81bee07297)" style="fill: none; stroke: #000000; stroke-linecap: square"/>
   </g>
   <g id="line2d_76">
    <path d="M 139.448 59.872 
L 128.08 48.504 
" clip-path="url(#p81bee07297)" style="fill: none; stroke: #000000; stroke-linecap: square"/>
   </g>
   <g id="line2d_77">
    <path d="M 128.08 48.504 
L 139.448 37.136 
" clip-path="url(#p81bee07297)" style="fill: none; stroke: #000000; stroke-linecap: square"/>
   </g>
   <g id="line2d_78">
    <path d="M 139.448 48.504 
L 128.08 37.136 
" clip-path="url(#p81bee07297)" style="fill: none; stroke: #000000; stroke-linecap: square"/>
   </g>
   <g id="line2d_79">
    <path d="M 139.448 105.344 
L 150.816 93.976 
" clip-path="url(#p81bee07297)" style="fill: none; stroke: #000000; stroke-linecap: square"/>
   </g>
   <g id="line2d_80">
    <path d="M 150.816 105.344 
L 139.448 93.976 
" clip-path="url(#p81bee07297)" style="fill: none; stroke: #000000; stroke-linecap: square"/>
   </g>
   <g id="line2d_81">
    <path d="M 139.448 59.872 
L 150.816 48.504 
" clip-path="url(#p81bee07297)" style="fill: none; stroke: #000000; stroke-linecap: square"/>
   </g>
   <g id="line2d_82">
    <path d="M 150.816 59.872 
L 139.448 48.504 
" clip-path="url(#p81bee07297)" style="fill: none; stroke: #000000; stroke-linecap: square"/>
   </g>
   <g id="line2d_83">
    <path d="M 139.448 48.504 
L 150.816 37.136 
" clip-path="url(#p81bee07297)" style="fill: none; stroke: #000000; stroke-linecap: square"/>
   </g>
   <g id="line2d_84">
    <path d="M 150.816 48.504 
L 139.448 37.136 
" clip-path="url(#p81bee07297)" style="fill: none; stroke: #000000; stroke-linecap: square"/>
   </g>
   <g id="line2d_85">
    <path d="M 196.288 48.504 
L 207.656 37.136 
" clip-path="url(#p81bee07297)" style="fill: none; stroke: #000000; stroke-linecap: square"/>
   </g>
   <g id="line2d_86">
    <path d="M 207.656 48.504 
L 196.288 37.136 
" clip-path="url(#p81bee07297)" style="fill: none; stroke: #000000; stroke-linecap: square"/>
   </g>
   <g id="line2d_87">
    <path d="M 196.288 37.136 
L 207.656 25.768 
" clip-path="url(#p81bee07297)" style="fill: none; stroke: #000000; stroke-linecap: square"/>
   </g>
   <g id="line2d_88">
    <path d="M 207.656 37.136 
L 196.288 25.768 
" clip-path="url(#p81bee07297)" style="fill: none; stroke: #000000; stroke-linecap: square"/>
   </g>
   <g id="line2d_89">
    <path d="M 196.288 25.768 
L 207.656 14.4 
" clip-path="url(#p81bee07297)" style="fill: none; stroke: #000000; stroke-linecap: square"/>
   </g>
   <g id="line2d_90">
    <path d="M 207.656 25.768 
L 196.288 14.4 
" clip-path="url(#p81bee07297)" style="fill: none; stroke: #000000; stroke-linecap: square"/>
   </g>
   <g id="line2d_91">
    <path d="M 207.656 37.136 
L 219.024 25.768 
" clip-path="url(#p81bee07297)" style="fill: none; stroke: #000000; stroke-linecap: square"/>
   </g>
   <g id="line2d_92">
    <path d="M 219.024 37.136 
L 207.656 25.768 
" clip-path="url(#p81bee07297)" style="fill: none; stroke: #000000; stroke-linecap: square"/>
   </g>
   <g id="line2d_93">
    <path d="M 207.656 25.768 
L 219.024 14.4 
" clip-path="url(#p81bee07297)" style="fill: none; stroke: #000000; stroke-linecap: square"/>
   </g>
   <g id="line2d_94">
    <path d="M 219.024 25.768 
L 207.656 14.4 
" clip-path="url(#p81bee07297)" style="fill: none; stroke: #000000; stroke-linecap: square"/>
   </g>
   <g id="line2d_95">
    <path d="M 219.024 128.08 
L 230.392 116.712 
" clip-path="url(#p81bee07297)" style="fill: none; stroke: #000000; stroke-linecap: square"/>
   </g>
   <g id="line2d_96">
    <path d="M 230.392 128.08 
L 219.024 116.712 
" clip-path="url(#p81bee07297)" style="fill: none; stroke: #000000; stroke-linecap: square"/>
   </g>
   <g id="line2d_97">
    <path d="M 219.024 116.712 
L 230.392 105.344 
" clip-path="url(#p81bee07297)" style="fill: none; stroke: #000000; stroke-linecap: square"/>
   </g>
   <g id="line2d_98">
    <path d="M 230.392 116.712 
L 219.024 105.344 
" clip-path="url(#p81bee07297)" style="fill: none; stroke: #000000; stroke-linecap: square"/>
   </g>
   <g id="line2d_99">
    <path d="M 219.024 37.136 
L 230.392 25.768 
" clip-path="url(#p81bee07297)" style="fill: none; stroke: #000000; stroke-linecap: square"/>
   </g>
   <g id="line2d_100">
    <path d="M 230.392 37.136 
L 219.024 25.768 
" clip-path="url(#p81bee07297)" style="fill: none; stroke: #000000; stroke-linecap: square"/>
   </g>
   <g id="line2d_101">
    <path d="M 219.024 25.768 
L 230.392 14.4 
" clip-path="url(#p81bee07297)" style="fill: none; stroke: #000000; stroke-linecap: square"/>
   </g>
   <g id="line2d_102">
    <path d="M 230.392 25.768 
L 219.024 14.4 
" clip-path="url(#p81bee07297)" style="fill: none; stroke: #000000; stroke-linecap: square"/>
   </g>
   <g id="line2d_103">
    <path d="M 230.392 128.08 
L 241.76 116.712 
" clip-path="url(#p81bee07297)" style="fill: none; stroke: #000000; stroke-linecap: square"/>
   </g>
   <g id="line2d_104">
    <path d="M 241.76 128.08 
L 230.392 116.712 
" clip-path="url(#p81bee07297)" style="fill: none; stroke: #000000; stroke-linecap: square"/>
   </g>
   <g id="line2d_105">
    <path d="M 230.392 116.712 
L 241.76 105.344 
" clip-path="url(#p81bee07297)" style="fill: none; stroke: #000000; stroke-linecap: square"/>
   </g>
   <g id="line2d_106">
    <path d="M 241.76 116.712 
L 230.392 105.344 
" clip-path="url(#p81bee07297)" style="fill: none; stroke: #000000; stroke-linecap: square"/>
   </g>
   <g id="line2d_107">
    <path d="M 230.392 37.136 
L 241.76 25.768 
" clip-path="url(#p81bee07297)" style="fill: none; stroke: #000000; stroke-linecap: square"/>
   </g>
   <g id="line2d_108">
    <path d="M 241.76 37.136 
L 230.392 25.768 
" clip-path="url(#p81bee07297)" style="fill: none; stroke: #000000; stroke-linecap: square"/>
   </g>
   <g id="line2d_109">
    <path d="M 230.392 25.768 
L 241.76 14.4 
" clip-path="url(#p81bee07297)" style="fill: none; stroke: #000000; stroke-linecap: square"/>
   </g>
   <g id="line2d_110">
    <path d="M 241.76 25.768 
L 230.392 14.4 
" clip-path="url(#p81bee07297)" style="fill: none; stroke: #000000; stroke-linecap: square"/>
   </g>
  </g>
 </g>
 <defs>
  <clipPath id="p81bee07297">
   <rect x="14.4" y="14.4" width="227.36" height="227.36"/>
  </clipPath>
 </defs>
</svg>
