<?xml version="1.0" encoding="utf-8" standalone="no"?>
<!DOCTYPE svg PUBLIC "-//W3C//DTD SVG 1.1//EN"
  "http://www.w3.org/Graphics/SVG/1.1/DTD/svg11.dtd">
<svg xmlns:xlink="http://www.w3.org/1999/xlink" width="255.44pt" height="255.44pt" viewBox="0 0 255.44 255.44" xmlns="http://www.w3.org/2000/svg" version="1.1">
 <metadata>
  <rdf:RDF xmlns:dc="http://purl.org/dc/elements/1.1/" xmlns:cc="http://creativecommons.org/ns#" xmlns:rdf="http://www.w3.org/1999/02/22-rdf-syntax-ns#">
   <cc:Work>
    <dc:type rdf:resource="http://purl.org/dc/dcmitype/StillImage"/>
    <dc:date>2023-12-01T03:37:16.163986</dc:date>
    <dc:format>image/svg+xml</dc:format>
    <dc:creator>
     <cc:Agent>
      <dc:title>Matplotlib v3.8.1, https://matplotlib.org/</dc:title>
     </cc:Agent>
    </dc:creator>
   </cc:Work>
  </rdf:RDF>
 </metadata>
 <defs>
  <style type="text/css">*{stroke-linejoin: round; stroke-linecap: butt}</style>
 </defs>
 <g id="figure_1">
  <g id="patch_1">
   <path d="M 0 255.44 
L 255.44 255.44 
L 255.44 0 
L 0 0 
L 0 255.44 
z
" style="fill: none"/>
  </g>
  <g id="axes_1">
   <g id="patch_2">
    <path d="M 14.4 241.04 
L 93.724 241.04 
L 93.724 105.056 
L 14.4 105.056 
z
" clip-path="url(#p8ece5a699e)" style="fill: #ffffff; stroke: #ffffff; stroke-linejoin: miter"/>
   </g>
   <g id="patch_3">
    <path d="M 54.062 174.1812 
C 54.362528 174.1812 54.650788 174.061799 54.863293 173.849293 
C 55.075799 173.636788 55.1952 173.348528 55.1952 173.048 
C 55.1952 172.747472 55.075799 172.459212 54.863293 172.246707 
C 54.650788 172.034201 54.362528 171.9148 54.062 171.9148 
C 53.761472 171.9148 53.473212 172.034201 53.260707 172.246707 
C 53.048201 172.459212 52.9288 172.747472 52.9288 173.048 
C 52.9288 173.348528 53.048201 173.636788 53.260707 173.849293 
C 53.473212 174.061799 53.761472 174.1812 54.062 174.1812 
z
" clip-path="url(#p8ece5a699e)" style="stroke: #000000; stroke-linejoin: miter"/>
   </g>
   <g id="patch_4">
    <path d="M 93.724 241.04 
L 184.38 241.04 
L 184.38 173.048 
L 93.724 173.048 
z
" clip-path="url(#p8ece5a699e)" style="fill: #ffffff; stroke: #ffffff; stroke-linejoin: miter"/>
   </g>
   <g id="patch_5">
    <path d="M 139.052 208.1772 
C 139.352528 208.1772 139.640788 208.057799 139.853293 207.845293 
C 140.065799 207.632788 140.1852 207.344528 140.1852 207.044 
C 140.1852 206.743472 140.065799 206.455212 139.853293 206.242707 
C 139.640788 206.030201 139.352528 205.9108 139.052 205.9108 
C 138.751472 205.9108 138.463212 206.030201 138.250707 206.242707 
C 138.038201 206.455212 137.9188 206.743472 137.9188 207.044 
C 137.9188 207.344528 138.038201 207.632788 138.250707 207.845293 
C 138.463212 208.057799 138.751472 208.1772 139.052 208.1772 
z
" clip-path="url(#p8ece5a699e)" style="stroke: #000000; stroke-linejoin: miter"/>
   </g>
   <g id="patch_6">
    <path d="M 93.724 173.048 
L 218.376 173.048 
L 218.376 150.384 
L 93.724 150.384 
z
" clip-path="url(#p8ece5a699e)" style="fill: #ffffff; stroke: #ffffff; stroke-linejoin: miter"/>
   </g>
   <g id="patch_7">
    <path d="M 156.05 162.8492 
C 156.350528 162.8492 156.638788 162.729799 156.851293 162.517293 
C 157.063799 162.304788 157.1832 162.016528 157.1832 161.716 
C 157.1832 161.415472 157.063799 161.127212 156.851293 160.914707 
C 156.638788 160.702201 156.350528 160.5828 156.05 160.5828 
C 155.749472 160.5828 155.461212 160.702201 155.248707 160.914707 
C 155.036201 161.127212 154.9168 161.415472 154.9168 161.716 
C 154.9168 162.016528 155.036201 162.304788 155.248707 162.517293 
C 155.461212 162.729799 155.749472 162.8492 156.05 162.8492 
z
" clip-path="url(#p8ece5a699e)" style="stroke: #000000; stroke-linejoin: miter"/>
   </g>
   <g id="patch_8">
    <path d="M 93.724 150.384 
L 150.384 150.384 
L 150.384 71.06 
L 93.724 71.06 
z
" clip-path="url(#p8ece5a699e)" style="fill: #ffffff; stroke: #ffffff; stroke-linejoin: miter"/>
   </g>
   <g id="patch_9">
    <path d="M 122.054 111.8552 
C 122.354528 111.8552 122.642788 111.735799 122.855293 111.523293 
C 123.067799 111.310788 123.1872 111.022528 123.1872 110.722 
C 123.1872 110.421472 123.067799 110.133212 122.855293 109.920707 
C 122.642788 109.708201 122.354528 109.5888 122.054 109.5888 
C 121.753472 109.5888 121.465212 109.708201 121.252707 109.920707 
C 121.040201 110.133212 120.9208 110.421472 120.9208 110.722 
C 120.9208 111.022528 121.040201 111.310788 121.252707 111.523293 
C 121.465212 111.735799 121.753472 111.8552 122.054 111.8552 
z
" clip-path="url(#p8ece5a699e)" style="stroke: #000000; stroke-linejoin: miter"/>
   </g>
   <g id="patch_10">
    <path d="M 150.384 150.384 
L 218.376 150.384 
L 218.376 59.728 
L 150.384 59.728 
z
" clip-path="url(#p8ece5a699e)" style="fill: #ffffff; stroke: #ffffff; stroke-linejoin: miter"/>
   </g>
   <g id="patch_11">
    <path d="M 184.38 106.1892 
C 184.680528 106.1892 184.968788 106.069799 185.181293 105.857293 
C 185.393799 105.644788 185.5132 105.356528 185.5132 105.056 
C 185.5132 104.755472 185.393799 104.467212 185.181293 104.254707 
C 184.968788 104.042201 184.680528 103.9228 184.38 103.9228 
C 184.079472 103.9228 183.791212 104.042201 183.578707 104.254707 
C 183.366201 104.467212 183.2468 104.755472 183.2468 105.056 
C 183.2468 105.356528 183.366201 105.644788 183.578707 105.857293 
C 183.791212 106.069799 184.079472 106.1892 184.38 106.1892 
z
" clip-path="url(#p8ece5a699e)" style="stroke: #000000; stroke-linejoin: miter"/>
   </g>
   <g id="patch_12">
    <path d="M 184.38 241.04 
L 241.04 241.04 
L 241.04 184.38 
L 184.38 184.38 
z
" clip-path="url(#p8ece5a699e)" style="fill: #ffffff; stroke: #ffffff; stroke-linejoin: miter"/>
   </g>
   <g id="patch_13">
    <path d="M 212.71 213.8432 
C 213.010528 213.8432 213.298788 213.723799 213.511293 213.511293 
C 213.723799 213.298788 213.8432 213.010528 213.8432 212.71 
C 213.8432 212.409472 213.723799 212.121212 213.511293 211.908707 
C 213.298788 211.696201 213.010528 211.5768 212.71 211.5768 
C 212.409472 211.5768 212.121212 211.696201 211.908707 211.908707 
C 211.696201 212.121212 211.5768 212.409472 211.5768 212.71 
C 211.5768 213.010528 211.696201 213.298788 211.908707 213.511293 
C 212.121212 213.723799 212.409472 213.8432 212.71 213.8432 
z
" clip-path="url(#p8ece5a699e)" style="stroke: #000000; stroke-linejoin: miter"/>
   </g>
   <g id="patch_14">
    <path d="M 14.4 105.056 
L 82.392 105.056 
L 82.392 71.06 
L 14.4 71.06 
z
" clip-path="url(#p8ece5a699e)" style="fill: #ffffff; stroke: #ffffff; stroke-linejoin: miter"/>
   </g>
   <g id="patch_15">
    <path d="M 48.396 89.1912 
C 48.696528 89.1912 48.984788 89.071799 49.197293 88.859293 
C 49.409799 88.646788 49.5292 88.358528 49.5292 88.058 
C 49.5292 87.757472 49.409799 87.469212 49.197293 87.256707 
C 48.984788 87.044201 48.696528 86.9248 48.396 86.9248 
C 48.095472 86.9248 47.807212 87.044201 47.594707 87.256707 
C 47.382201 87.469212 47.2628 87.757472 47.2628 88.058 
C 47.2628 88.358528 47.382201 88.646788 47.594707 88.859293 
C 47.807212 89.071799 48.095472 89.1912 48.396 89.1912 
z
" clip-path="url(#p8ece5a699e)" style="stroke: #000000; stroke-linejoin: miter"/>
   </g>
   <g id="patch_16">
    <path d="M 218.376 184.38 
L 241.04 184.38 
L 241.04 48.396 
L 218.376 48.396 
z
" clip-path="url(#p8ece5a699e)" style="fill: #ffffff; stroke: #ffffff; stroke-linejoin: miter"/>
   </g>
   <g id="patch_17">
    <path d="M 229.708 117.5212 
C 230.008528 117.5212 230.296788 117.401799 230.509293 117.189293 
C 230.721799 116.976788 230.8412 116.688528 230.8412 116.388 
C 230.8412 116.087472 230.721799 115.799212 230.509293 115.586707 
C 230.296788 115.374201 230.008528 115.2548 229.708 115.2548 
C 229.407472 115.2548 229.119212 115.374201 228.906707 115.586707 
C 228.694201 115.799212 228.5748 116.087472 228.5748 116.388 
C 228.5748 116.688528 228.694201 116.976788 228.906707 117.189293 
C 229.119212 117.401799 229.407472 117.5212 229.708 117.5212 
z
" clip-path="url(#p8ece5a699e)" style="stroke: #000000; stroke-linejoin: miter"/>
   </g>
   <g id="patch_18">
    <path d="M 14.4 71.06 
L 37.064 71.06 
L 37.064 25.732 
L 14.4 25.732 
z
" clip-path="url(#p8ece5a699e)" style="fill: #ffffff; stroke: #ffffff; stroke-linejoin: miter"/>
   </g>
   <g id="patch_19">
    <path d="M 25.732 49.5292 
C 26.032528 49.5292 26.320788 49.409799 26.533293 49.197293 
C 26.745799 48.984788 26.8652 48.696528 26.8652 48.396 
C 26.8652 48.095472 26.745799 47.807212 26.533293 47.594707 
C 26.320788 47.382201 26.032528 47.2628 25.732 47.2628 
C 25.431472 47.2628 25.143212 47.382201 24.930707 47.594707 
C 24.718201 47.807212 24.5988 48.095472 24.5988 48.396 
C 24.5988 48.696528 24.718201 48.984788 24.930707 49.197293 
C 25.143212 49.409799 25.431472 49.5292 25.732 49.5292 
z
" clip-path="url(#p8ece5a699e)" style="stroke: #000000; stroke-linejoin: miter"/>
   </g>
   <g id="patch_20">
    <path d="M 37.064 71.06 
L 116.388 71.06 
L 116.388 14.4 
L 37.064 14.4 
z
" clip-path="url(#p8ece5a699e)" style="fill: #ffffff; stroke: #ffffff; stroke-linejoin: miter"/>
   </g>
   <g id="patch_21">
    <path d="M 76.726 43.8632 
C 77.026528 43.8632 77.314788 43.743799 77.527293 43.531293 
C 77.739799 43.318788 77.8592 43.030528 77.8592 42.73 
C 77.8592 42.429472 77.739799 42.141212 77.527293 41.928707 
C 77.314788 41.716201 77.026528 41.5968 76.726 41.5968 
C 76.425472 41.5968 76.137212 41.716201 75.924707 41.928707 
C 75.712201 42.141212 75.5928 42.429472 75.5928 42.73 
C 75.5928 43.030528 75.712201 43.318788 75.924707 43.531293 
C 76.137212 43.743799 76.425472 43.8632 76.726 43.8632 
z
" clip-path="url(#p8ece5a699e)" style="stroke: #000000; stroke-linejoin: miter"/>
   </g>
   <g id="patch_22">
    <path d="M 116.388 59.728 
L 161.716 59.728 
L 161.716 25.732 
L 116.388 25.732 
z
" clip-path="url(#p8ece5a699e)" style="fill: #ffffff; stroke: #ffffff; stroke-linejoin: miter"/>
   </g>
   <g id="patch_23">
    <path d="M 139.052 43.8632 
C 139.352528 43.8632 139.640788 43.743799 139.853293 43.531293 
C 140.065799 43.318788 140.1852 43.030528 140.1852 42.73 
C 140.1852 42.429472 140.065799 42.141212 139.853293 41.928707 
C 139.640788 41.716201 139.352528 41.5968 139.052 41.5968 
C 138.751472 41.5968 138.463212 41.716201 138.250707 41.928707 
C 138.038201 42.141212 137.9188 42.429472 137.9188 42.73 
C 137.9188 43.030528 138.038201 43.318788 138.250707 43.531293 
C 138.463212 43.743799 138.751472 43.8632 139.052 43.8632 
z
" clip-path="url(#p8ece5a699e)" style="stroke: #000000; stroke-linejoin: miter"/>
   </g>
   <g id="patch_24">
    <path d="M 161.716 59.728 
L 218.376 59.728 
L 218.376 25.732 
L 161.716 25.732 
z
" clip-path="url(#p8ece5a699e)" style="fill: #ffffff; stroke: #ffffff; stroke-linejoin: miter"/>
   </g>
   <g id="patch_25">
    <path d="M 190.046 43.8632 
C 190.346528 43.8632 190.634788 43.743799 190.847293 43.531293 
C 191.059799 43.318788 191.1792 43.030528 191.1792 42.73 
C 191.1792 42.429472 191.059799 42.141212 190.847293 41.928707 
C 190.634788 41.716201 190.346528 41.5968 190.046 41.5968 
C 189.745472 41.5968 189.457212 41.716201 189.244707 41.928707 
C 189.032201 42.141212 188.9128 42.429472 188.9128 42.73 
C 188.9128 43.030528 189.032201 43.318788 189.244707 43.531293 
C 189.457212 43.743799 189.745472 43.8632 190.046 43.8632 
z
" clip-path="url(#p8ece5a699e)" style="stroke: #000000; stroke-linejoin: miter"/>
   </g>
   <g id="patch_26">
    <path d="M 14.4 25.732 
L 25.732 25.732 
L 25.732 14.4 
L 14.4 14.4 
L 14.4 25.732 
z
" clip-path="url(#p8ece5a699e)" style="fill: none; stroke: #000000; stroke-linejoin: miter"/>
   </g>
   <g id="patch_27">
    <path d="M 25.732 25.732 
L 37.064 25.732 
L 37.064 14.4 
L 25.732 14.4 
L 25.732 25.732 
z
" clip-path="url(#p8ece5a699e)" style="fill: none; stroke: #000000; stroke-linejoin: miter"/>
   </g>
   <g id="patch_28">
    <path d="M 82.392 105.056 
L 93.724 105.056 
L 93.724 93.724 
L 82.392 93.724 
L 82.392 105.056 
z
" clip-path="url(#p8ece5a699e)" style="fill: none; stroke: #000000; stroke-linejoin: miter"/>
   </g>
   <g id="patch_29">
    <path d="M 82.392 93.724 
L 93.724 93.724 
L 93.724 82.392 
L 82.392 82.392 
L 82.392 93.724 
z
" clip-path="url(#p8ece5a699e)" style="fill: none; stroke: #000000; stroke-linejoin: miter"/>
   </g>
   <g id="patch_30">
    <path d="M 82.392 82.392 
L 93.724 82.392 
L 93.724 71.06 
L 82.392 71.06 
L 82.392 82.392 
z
" clip-path="url(#p8ece5a699e)" style="fill: none; stroke: #000000; stroke-linejoin: miter"/>
   </g>
   <g id="patch_31">
    <path d="M 116.388 71.06 
L 127.72 71.06 
L 127.72 59.728 
L 116.388 59.728 
L 116.388 71.06 
z
" clip-path="url(#p8ece5a699e)" style="fill: none; stroke: #000000; stroke-linejoin: miter"/>
   </g>
   <g id="patch_32">
    <path d="M 116.388 25.732 
L 127.72 25.732 
L 127.72 14.4 
L 116.388 14.4 
L 116.388 25.732 
z
" clip-path="url(#p8ece5a699e)" style="fill: none; stroke: #000000; stroke-linejoin: miter"/>
   </g>
   <g id="patch_33">
    <path d="M 127.72 71.06 
L 139.052 71.06 
L 139.052 59.728 
L 127.72 59.728 
L 127.72 71.06 
z
" clip-path="url(#p8ece5a699e)" style="fill: none; stroke: #000000; stroke-linejoin: miter"/>
   </g>
   <g id="patch_34">
    <path d="M 127.72 25.732 
L 139.052 25.732 
L 139.052 14.4 
L 127.72 14.4 
L 127.72 25.732 
z
" clip-path="url(#p8ece5a699e)" style="fill: none; stroke: #000000; stroke-linejoin: miter"/>
   </g>
   <g id="patch_35">
    <path d="M 139.052 71.06 
L 150.384 71.06 
L 150.384 59.728 
L 139.052 59.728 
L 139.052 71.06 
z
" clip-path="url(#p8ece5a699e)" style="fill: none; stroke: #000000; stroke-linejoin: miter"/>
   </g>
   <g id="patch_36">
    <path d="M 139.052 25.732 
L 150.384 25.732 
L 150.384 14.4 
L 139.052 14.4 
L 139.052 25.732 
z
" clip-path="url(#p8ece5a699e)" style="fill: none; stroke: #000000; stroke-linejoin: miter"/>
   </g>
   <g id="patch_37">
    <path d="M 150.384 25.732 
L 161.716 25.732 
L 161.716 14.4 
L 150.384 14.4 
L 150.384 25.732 
z
" clip-path="url(#p8ece5a699e)" style="fill: none; stroke: #000000; stroke-linejoin: miter"/>
   </g>
   <g id="patch_38">
    <path d="M 161.716 25.732 
L 173.048 25.732 
L 173.048 14.4 
L 161.716 14.4 
L 161.716 25.732 
z
" clip-path="url(#p8ece5a699e)" style="fill: none; stroke: #000000; stroke-linejoin: miter"/>
   </g>
   <g id="patch_39">
    <path d="M 173.048 25.732 
L 184.38 25.732 
L 184.38 14.4 
L 173.048 14.4 
L 173.048 25.732 
z
" clip-path="url(#p8ece5a699e)" style="fill: none; stroke: #000000; stroke-linejoin: miter"/>
   </g>
   <g id="patch_40">
    <path d="M 184.38 184.38 
L 195.712 184.38 
L 195.712 173.048 
L 184.38 173.048 
L 184.38 184.38 
z
" clip-path="url(#p8ece5a699e)" style="fill: none; stroke: #000000; stroke-linejoin: miter"/>
   </g>
   <g id="patch_41">
    <path d="M 184.38 25.732 
L 195.712 25.732 
L 195.712 14.4 
L 184.38 14.4 
L 184.38 25.732 
z
" clip-path="url(#p8ece5a699e)" style="fill: none; stroke: #000000; stroke-linejoin: miter"/>
   </g>
   <g id="patch_42">
    <path d="M 195.712 184.38 
L 207.044 184.38 
L 207.044 173.048 
L 195.712 173.048 
L 195.712 184.38 
z
" clip-path="url(#p8ece5a699e)" style="fill: none; stroke: #000000; stroke-linejoin: miter"/>
   </g>
   <g id="patch_43">
    <path d="M 195.712 25.732 
L 207.044 25.732 
L 207.044 14.4 
L 195.712 14.4 
L 195.712 25.732 
z
" clip-path="url(#p8ece5a699e)" style="fill: none; stroke: #000000; stroke-linejoin: miter"/>
   </g>
   <g id="patch_44">
    <path d="M 207.044 184.38 
L 218.376 184.38 
L 218.376 173.048 
L 207.044 173.048 
L 207.044 184.38 
z
" clip-path="url(#p8ece5a699e)" style="fill: none; stroke: #000000; stroke-linejoin: miter"/>
   </g>
   <g id="patch_45">
    <path d="M 207.044 25.732 
L 218.376 25.732 
L 218.376 14.4 
L 207.044 14.4 
L 207.044 25.732 
z
" clip-path="url(#p8ece5a699e)" style="fill: none; stroke: #000000; stroke-linejoin: miter"/>
   </g>
   <g id="patch_46">
    <path d="M 218.376 48.396 
L 229.708 48.396 
L 229.708 37.064 
L 218.376 37.064 
L 218.376 48.396 
z
" clip-path="url(#p8ece5a699e)" style="fill: none; stroke: #000000; stroke-linejoin: miter"/>
   </g>
   <g id="patch_47">
    <path d="M 218.376 37.064 
L 229.708 37.064 
L 229.708 25.732 
L 218.376 25.732 
L 218.376 37.064 
z
" clip-path="url(#p8ece5a699e)" style="fill: none; stroke: #000000; stroke-linejoin: miter"/>
   </g>
   <g id="patch_48">
    <path d="M 218.376 25.732 
L 229.708 25.732 
L 229.708 14.4 
L 218.376 14.4 
L 218.376 25.732 
z
" clip-path="url(#p8ece5a699e)" style="fill: none; stroke: #000000; stroke-linejoin: miter"/>
   </g>
   <g id="patch_49">
    <path d="M 229.708 48.396 
L 241.04 48.396 
L 241.04 37.064 
L 229.708 37.064 
L 229.708 48.396 
z
" clip-path="url(#p8ece5a699e)" style="fill: none; stroke: #000000; stroke-linejoin: miter"/>
   </g>
   <g id="patch_50">
    <path d="M 229.708 37.064 
L 241.04 37.064 
L 241.04 25.732 
L 229.708 25.732 
L 229.708 37.064 
z
" clip-path="url(#p8ece5a699e)" style="fill: none; stroke: #000000; stroke-linejoin: miter"/>
   </g>
   <g id="patch_51">
    <path d="M 229.708 25.732 
L 241.04 25.732 
L 241.04 14.4 
L 229.708 14.4 
L 229.708 25.732 
z
" clip-path="url(#p8ece5a699e)" style="fill: none; stroke: #000000; stroke-linejoin: miter"/>
   </g>
   <g id="line2d_1">
    <path d="M 14.4 241.04 
L 93.724 241.04 
" clip-path="url(#p8ece5a699e)" style="fill: none; stroke: #000000; stroke-width: 1.5; stroke-linecap: square"/>
   </g>
   <g id="line2d_2">
    <path d="M 14.4 241.04 
L 14.4 105.056 
" clip-path="url(#p8ece5a699e)" style="fill: none; stroke: #000000; stroke-width: 1.5; stroke-linecap: square"/>
   </g>
   <g id="line2d_3">
    <path d="M 93.724 241.04 
L 93.724 105.056 
" clip-path="url(#p8ece5a699e)" style="fill: none; stroke: #000000; stroke-width: 1.5; stroke-linecap: square"/>
   </g>
   <g id="line2d_4">
    <path d="M 14.4 105.056 
L 93.724 105.056 
" clip-path="url(#p8ece5a699e)" style="fill: none; stroke: #000000; stroke-width: 1.5; stroke-linecap: square"/>
   </g>
   <g id="line2d_5">
    <path d="M 93.724 241.04 
L 184.38 241.04 
" clip-path="url(#p8ece5a699e)" style="fill: none; stroke: #000000; stroke-width: 1.5; stroke-linecap: square"/>
   </g>
   <g id="line2d_6">
    <path d="M 93.724 241.04 
L 93.724 173.048 
" clip-path="url(#p8ece5a699e)" style="fill: none; stroke: #000000; stroke-width: 1.5; stroke-linecap: square"/>
   </g>
   <g id="line2d_7">
    <path d="M 184.38 241.04 
L 184.38 173.048 
" clip-path="url(#p8ece5a699e)" style="fill: none; stroke: #000000; stroke-width: 1.5; stroke-linecap: square"/>
   </g>
   <g id="line2d_8">
    <path d="M 93.724 173.048 
L 184.38 173.048 
" clip-path="url(#p8ece5a699e)" style="fill: none; stroke: #000000; stroke-width: 1.5; stroke-linecap: square"/>
   </g>
   <g id="line2d_9">
    <path d="M 93.724 173.048 
L 218.376 173.048 
" clip-path="url(#p8ece5a699e)" style="fill: none; stroke: #000000; stroke-width: 1.5; stroke-linecap: square"/>
   </g>
   <g id="line2d_10">
    <path d="M 93.724 173.048 
L 93.724 150.384 
" clip-path="url(#p8ece5a699e)" style="fill: none; stroke: #000000; stroke-width: 1.5; stroke-linecap: square"/>
   </g>
   <g id="line2d_11">
    <path d="M 218.376 173.048 
L 218.376 150.384 
" clip-path="url(#p8ece5a699e)" style="fill: none; stroke: #000000; stroke-width: 1.5; stroke-linecap: square"/>
   </g>
   <g id="line2d_12">
    <path d="M 93.724 150.384 
L 218.376 150.384 
" clip-path="url(#p8ece5a699e)" style="fill: none; stroke: #000000; stroke-width: 1.5; stroke-linecap: square"/>
   </g>
   <g id="line2d_13">
    <path d="M 93.724 150.384 
L 150.384 150.384 
" clip-path="url(#p8ece5a699e)" style="fill: none; stroke: #000000; stroke-width: 1.5; stroke-linecap: square"/>
   </g>
   <g id="line2d_14">
    <path d="M 93.724 150.384 
L 93.724 71.06 
" clip-path="url(#p8ece5a699e)" style="fill: none; stroke: #000000; stroke-width: 1.5; stroke-linecap: square"/>
   </g>
   <g id="line2d_15">
    <path d="M 150.384 150.384 
L 150.384 71.06 
" clip-path="url(#p8ece5a699e)" style="fill: none; stroke: #000000; stroke-width: 1.5; stroke-linecap: square"/>
   </g>
   <g id="line2d_16">
    <path d="M 93.724 71.06 
L 150.384 71.06 
" clip-path="url(#p8ece5a699e)" style="fill: none; stroke: #000000; stroke-width: 1.5; stroke-linecap: square"/>
   </g>
   <g id="line2d_17">
    <path d="M 150.384 150.384 
L 218.376 150.384 
" clip-path="url(#p8ece5a699e)" style="fill: none; stroke: #000000; stroke-width: 1.5; stroke-linecap: square"/>
   </g>
   <g id="line2d_18">
    <path d="M 150.384 150.384 
L 150.384 59.728 
" clip-path="url(#p8ece5a699e)" style="fill: none; stroke: #000000; stroke-width: 1.5; stroke-linecap: square"/>
   </g>
   <g id="line2d_19">
    <path d="M 218.376 150.384 
L 218.376 59.728 
" clip-path="url(#p8ece5a699e)" style="fill: none; stroke: #000000; stroke-width: 1.5; stroke-linecap: square"/>
   </g>
   <g id="line2d_20">
    <path d="M 150.384 59.728 
L 218.376 59.728 
" clip-path="url(#p8ece5a699e)" style="fill: none; stroke: #000000; stroke-width: 1.5; stroke-linecap: square"/>
   </g>
   <g id="line2d_21">
    <path d="M 184.38 241.04 
L 241.04 241.04 
" clip-path="url(#p8ece5a699e)" style="fill: none; stroke: #000000; stroke-width: 1.5; stroke-linecap: square"/>
   </g>
   <g id="line2d_22">
    <path d="M 184.38 241.04 
L 184.38 184.38 
" clip-path="url(#p8ece5a699e)" style="fill: none; stroke: #000000; stroke-width: 1.5; stroke-linecap: square"/>
   </g>
   <g id="line2d_23">
    <path d="M 241.04 241.04 
L 241.04 184.38 
" clip-path="url(#p8ece5a699e)" style="fill: none; stroke: #000000; stroke-width: 1.5; stroke-linecap: square"/>
   </g>
   <g id="line2d_24">
    <path d="M 184.38 184.38 
L 241.04 184.38 
" clip-path="url(#p8ece5a699e)" style="fill: none; stroke: #000000; stroke-width: 1.5; stroke-linecap: square"/>
   </g>
   <g id="line2d_25">
    <path d="M 14.4 105.056 
L 82.392 105.056 
" clip-path="url(#p8ece5a699e)" style="fill: none; stroke: #000000; stroke-width: 1.5; stroke-linecap: square"/>
   </g>
   <g id="line2d_26">
    <path d="M 14.4 105.056 
L 14.4 71.06 
" clip-path="url(#p8ece5a699e)" style="fill: none; stroke: #000000; stroke-width: 1.5; stroke-linecap: square"/>
   </g>
   <g id="line2d_27">
    <path d="M 82.392 105.056 
L 82.392 71.06 
" clip-path="url(#p8ece5a699e)" style="fill: none; stroke: #000000; stroke-width: 1.5; stroke-linecap: square"/>
   </g>
   <g id="line2d_28">
    <path d="M 14.4 71.06 
L 82.392 71.06 
" clip-path="url(#p8ece5a699e)" style="fill: none; stroke: #000000; stroke-width: 1.5; stroke-linecap: square"/>
   </g>
   <g id="line2d_29">
    <path d="M 218.376 184.38 
L 241.04 184.38 
" clip-path="url(#p8ece5a699e)" style="fill: none; stroke: #000000; stroke-width: 1.5; stroke-linecap: square"/>
   </g>
   <g id="line2d_30">
    <path d="M 218.376 184.38 
L 218.376 48.396 
" clip-path="url(#p8ece5a699e)" style="fill: none; stroke: #000000; stroke-width: 1.5; stroke-linecap: square"/>
   </g>
   <g id="line2d_31">
    <path d="M 241.04 184.38 
L 241.04 48.396 
" clip-path="url(#p8ece5a699e)" style="fill: none; stroke: #000000; stroke-width: 1.5; stroke-linecap: square"/>
   </g>
   <g id="line2d_32">
    <path d="M 218.376 48.396 
L 241.04 48.396 
" clip-path="url(#p8ece5a699e)" style="fill: none; stroke: #000000; stroke-width: 1.5; stroke-linecap: square"/>
   </g>
   <g id="line2d_33">
    <path d="M 14.4 71.06 
L 37.064 71.06 
" clip-path="url(#p8ece5a699e)" style="fill: none; stroke: #000000; stroke-width: 1.5; stroke-linecap: square"/>
   </g>
   <g id="line2d_34">
    <path d="M 14.4 71.06 
L 14.4 25.732 
" clip-path="url(#p8ece5a699e)" style="fill: none; stroke: #000000; stroke-width: 1.5; stroke-linecap: square"/>
   </g>
   <g id="line2d_35">
    <path d="M 37.064 71.06 
L 37.064 25.732 
" clip-path="url(#p8ece5a699e)" style="fill: none; stroke: #000000; stroke-width: 1.5; stroke-linecap: square"/>
   </g>
   <g id="line2d_36">
    <path d="M 14.4 25.732 
L 37.064 25.732 
" clip-path="url(#p8ece5a699e)" style="fill: none; stroke: #000000; stroke-width: 1.5; stroke-linecap: square"/>
   </g>
   <g id="line2d_37">
    <path d="M 37.064 71.06 
L 116.388 71.06 
" clip-path="url(#p8ece5a699e)" style="fill: none; stroke: #000000; stroke-width: 1.5; stroke-linecap: square"/>
   </g>
   <g id="line2d_38">
    <path d="M 37.064 71.06 
L 37.064 14.4 
" clip-path="url(#p8ece5a699e)" style="fill: none; stroke: #000000; stroke-width: 1.5; stroke-linecap: square"/>
   </g>
   <g id="line2d_39">
    <path d="M 116.388 71.06 
L 116.388 14.4 
" clip-path="url(#p8ece5a699e)" style="fill: none; stroke: #000000; stroke-width: 1.5; stroke-linecap: square"/>
   </g>
   <g id="line2d_40">
    <path d="M 37.064 14.4 
L 116.388 14.4 
" clip-path="url(#p8ece5a699e)" style="fill: none; stroke: #000000; stroke-width: 1.5; stroke-linecap: square"/>
   </g>
   <g id="line2d_41">
    <path d="M 116.388 59.728 
L 161.716 59.728 
" clip-path="url(#p8ece5a699e)" style="fill: none; stroke: #000000; stroke-width: 1.5; stroke-linecap: square"/>
   </g>
   <g id="line2d_42">
    <path d="M 116.388 59.728 
L 116.388 25.732 
" clip-path="url(#p8ece5a699e)" style="fill: none; stroke: #000000; stroke-width: 1.5; stroke-linecap: square"/>
   </g>
   <g id="line2d_43">
    <path d="M 161.716 59.728 
L 161.716 25.732 
" clip-path="url(#p8ece5a699e)" style="fill: none; stroke: #000000; stroke-width: 1.5; stroke-linecap: square"/>
   </g>
   <g id="line2d_44">
    <path d="M 116.388 25.732 
L 161.716 25.732 
" clip-path="url(#p8ece5a699e)" style="fill: none; stroke: #000000; stroke-width: 1.5; stroke-linecap: square"/>
   </g>
   <g id="line2d_45">
    <path d="M 161.716 59.728 
L 218.376 59.728 
" clip-path="url(#p8ece5a699e)" style="fill: none; stroke: #000000; stroke-width: 1.5; stroke-linecap: square"/>
   </g>
   <g id="line2d_46">
    <path d="M 161.716 59.728 
L 161.716 25.732 
" clip-path="url(#p8ece5a699e)" style="fill: none; stroke: #000000; stroke-width: 1.5; stroke-linecap: square"/>
   </g>
   <g id="line2d_47">
    <path d="M 218.376 59.728 
L 218.376 25.732 
" clip-path="url(#p8ece5a699e)" style="fill: none; stroke: #000000; stroke-width: 1.5; stroke-linecap: square"/>
   </g>
   <g id="line2d_48">
    <path d="M 161.716 25.732 
L 218.376 25.732 
" clip-path="url(#p8ece5a699e)" style="fill: none; stroke: #000000; stroke-width: 1.5; stroke-linecap: square"/>
   </g>
   <g id="line2d_49">
    <path d="M 14.4 25.732 
L 25.732 14.4 
" clip-path="url(#p8ece5a699e)" style="fill: none; stroke: #000000; stroke-linecap: square"/>
   </g>
   <g id="line2d_50">
    <path d="M 25.732 25.732 
L 14.4 14.4 
" clip-path="url(#p8ece5a699e)" style="fill: none; stroke: #000000; stroke-linecap: square"/>
   </g>
   <g id="line2d_51">
    <path d="M 25.732 25.732 
L 37.064 14.4 
" clip-path="url(#p8ece5a699e)" style="fill: none; stroke: #000000; stroke-linecap: square"/>
   </g>
   <g id="line2d_52">
    <path d="M 37.064 25.732 
L 25.732 14.4 
" clip-path="url(#p8ece5a699e)" style="fill: none; stroke: #000000; stroke-linecap: square"/>
   </g>
   <g id="line2d_53">
    <path d="M 82.392 105.056 
L 93.724 93.724 
" clip-path="url(#p8ece5a699e)" style="fill: none; stroke: #000000; stroke-linecap: square"/>
   </g>
   <g id="line2d_54">
    <path d="M 93.724 105.056 
L 82.392 93.724 
" clip-path="url(#p8ece5a699e)" style="fill: none; stroke: #000000; stroke-linecap: square"/>
   </g>
   <g id="line2d_55">
    <path d="M 82.392 93.724 
L 93.724 82.392 
" clip-path="url(#p8ece5a699e)" style="fill: none; stroke: #000000; stroke-linecap: square"/>
   </g>
   <g id="line2d_56">
    <path d="M 93.724 93.724 
L 82.392 82.392 
" clip-path="url(#p8ece5a699e)" style="fill: none; stroke: #000000; stroke-linecap: square"/>
   </g>
   <g id="line2d_57">
    <path d="M 82.392 82.392 
L 93.724 71.06 
" clip-path="url(#p8ece5a699e)" style="fill: none; stroke: #000000; stroke-linecap: square"/>
   </g>
   <g id="line2d_58">
    <path d="M 93.724 82.392 
L 82.392 71.06 
" clip-path="url(#p8ece5a699e)" style="fill: none; stroke: #000000; stroke-linecap: square"/>
   </g>
   <g id="line2d_59">
    <path d="M 116.388 71.06 
L 127.72 59.728 
" clip-path="url(#p8ece5a699e)" style="fill: none; stroke: #000000; stroke-linecap: square"/>
   </g>
   <g id="line2d_60">
    <path d="M 127.72 71.06 
L 116.388 59.728 
" clip-path="url(#p8ece5a699e)" style="fill: none; stroke: #000000; stroke-linecap: square"/>
   </g>
   <g id="line2d_61">
    <path d="M 116.388 25.732 
L 127.72 14.4 
" clip-path="url(#p8ece5a699e)" style="fill: none; stroke: #000000; stroke-linecap: square"/>
   </g>
   <g id="line2d_62">
    <path d="M 127.72 25.732 
L 116.388 14.4 
" clip-path="url(#p8ece5a699e)" style="fill: none; stroke: #000000; stroke-linecap: square"/>
   </g>
   <g id="line2d_63">
    <path d="M 127.72 71.06 
L 139.052 59.728 
" clip-path="url(#p8ece5a699e)" style="fill: none; stroke: #000000; stroke-linecap: square"/>
   </g>
   <g id="line2d_64">
    <path d="M 139.052 71.06 
L 127.72 59.728 
" clip-path="url(#p8ece5a699e)" style="fill: none; stroke: #000000; stroke-linecap: square"/>
   </g>
   <g id="line2d_65">
    <path d="M 127.72 25.732 
L 139.052 14.4 
" clip-path="url(#p8ece5a699e)" style="fill: none; stroke: #000000; stroke-linecap: square"/>
   </g>
   <g id="line2d_66">
    <path d="M 139.052 25.732 
L 127.72 14.4 
" clip-path="url(#p8ece5a699e)" style="fill: none; stroke: #000000; stroke-linecap: square"/>
   </g>
   <g id="line2d_67">
    <path d="M 139.052 71.06 
L 150.384 59.728 
" clip-path="url(#p8ece5a699e)" style="fill: none; stroke: #000000; stroke-linecap: square"/>
   </g>
   <g id="line2d_68">
    <path d="M 150.384 71.06 
L 139.052 59.728 
" clip-path="url(#p8ece5a699e)" style="fill: none; stroke: #000000; stroke-linecap: square"/>
   </g>
   <g id="line2d_69">
    <path d="M 139.052 25.732 
L 150.384 14.4 
" clip-path="url(#p8ece5a699e)" style="fill: none; stroke: #000000; stroke-linecap: square"/>
   </g>
   <g id="line2d_70">
    <path d="M 150.384 25.732 
L 139.052 14.4 
" clip-path="url(#p8ece5a699e)" style="fill: none; stroke: #000000; stroke-linecap: square"/>
   </g>
   <g id="line2d_71">
    <path d="M 150.384 25.732 
L 161.716 14.4 
" clip-path="url(#p8ece5a699e)" style="fill: none; stroke: #000000; stroke-linecap: square"/>
   </g>
   <g id="line2d_72">
    <path d="M 161.716 25.732 
L 150.384 14.4 
" clip-path="url(#p8ece5a699e)" style="fill: none; stroke: #000000; stroke-linecap: square"/>
   </g>
   <g id="line2d_73">
    <path d="M 161.716 25.732 
L 173.048 14.4 
" clip-path="url(#p8ece5a699e)" style="fill: none; stroke: #000000; stroke-linecap: square"/>
   </g>
   <g id="line2d_74">
    <path d="M 173.048 25.732 
L 161.716 14.4 
" clip-path="url(#p8ece5a699e)" style="fill: none; stroke: #000000; stroke-linecap: square"/>
   </g>
   <g id="line2d_75">
    <path d="M 173.048 25.732 
L 184.38 14.4 
" clip-path="url(#p8ece5a699e)" style="fill: none; stroke: #000000; stroke-linecap: square"/>
   </g>
   <g id="line2d_76">
    <path d="M 184.38 25.732 
L 173.048 14.4 
" clip-path="url(#p8ece5a699e)" style="fill: none; stroke: #000000; stroke-linecap: square"/>
   </g>
   <g id="line2d_77">
    <path d="M 184.38 184.38 
L 195.712 173.048 
" clip-path="url(#p8ece5a699e)" style="fill: none; stroke: #000000; stroke-linecap: square"/>
   </g>
   <g id="line2d_78">
    <path d="M 195.712 184.38 
L 184.38 173.048 
" clip-path="url(#p8ece5a699e)" style="fill: none; stroke: #000000; stroke-linecap: square"/>
   </g>
   <g id="line2d_79">
    <path d="M 184.38 25.732 
L 195.712 14.4 
" clip-path="url(#p8ece5a699e)" style="fill: none; stroke: #000000; stroke-linecap: square"/>
   </g>
   <g id="line2d_80">
    <path d="M 195.712 25.732 
L 184.38 14.4 
" clip-path="url(#p8ece5a699e)" style="fill: none; stroke: #000000; stroke-linecap: square"/>
   </g>
   <g id="line2d_81">
    <path d="M 195.712 184.38 
L 207.044 173.048 
" clip-path="url(#p8ece5a699e)" style="fill: none; stroke: #000000; stroke-linecap: square"/>
   </g>
   <g id="line2d_82">
    <path d="M 207.044 184.38 
L 195.712 173.048 
" clip-path="url(#p8ece5a699e)" style="fill: none; stroke: #000000; stroke-linecap: square"/>
   </g>
   <g id="line2d_83">
    <path d="M 195.712 25.732 
L 207.044 14.4 
" clip-path="url(#p8ece5a699e)" style="fill: none; stroke: #000000; stroke-linecap: square"/>
   </g>
   <g id="line2d_84">
    <path d="M 207.044 25.732 
L 195.712 14.4 
" clip-path="url(#p8ece5a699e)" style="fill: none; stroke: #000000; stroke-linecap: square"/>
   </g>
   <g id="line2d_85">
    <path d="M 207.044 184.38 
L 218.376 173.048 
" clip-path="url(#p8ece5a699e)" style="fill: none; stroke: #000000; stroke-linecap: square"/>
   </g>
   <g id="line2d_86">
    <path d="M 218.376 184.38 
L 207.044 173.048 
" clip-path="url(#p8ece5a699e)" style="fill: none; stroke: #000000; stroke-linecap: square"/>
   </g>
   <g id="line2d_87">
    <path d="M 207.044 25.732 
L 218.376 14.4 
" clip-path="url(#p8ece5a699e)" style="fill: none; stroke: #000000; stroke-linecap: square"/>
   </g>
   <g id="line2d_88">
    <path d="M 218.376 25.732 
L 207.044 14.4 
" clip-path="url(#p8ece5a699e)" style="fill: none; stroke: #000000; stroke-linecap: square"/>
   </g>
   <g id="line2d_89">
    <path d="M 218.376 48.396 
L 229.708 37.064 
" clip-path="url(#p8ece5a699e)" style="fill: none; stroke: #000000; stroke-linecap: square"/>
   </g>
   <g id="line2d_90">
    <path d="M 229.708 48.396 
L 218.376 37.064 
" clip-path="url(#p8ece5a699e)" style="fill: none; stroke: #000000; stroke-linecap: square"/>
   </g>
   <g id="line2d_91">
    <path d="M 218.376 37.064 
L 229.708 25.732 
" clip-path="url(#p8ece5a699e)" style="fill: none; stroke: #000000; stroke-linecap: square"/>
   </g>
   <g id="line2d_92">
    <path d="M 229.708 37.064 
L 218.376 25.732 
" clip-path="url(#p8ece5a699e)" style="fill: none; stroke: #000000; stroke-linecap: square"/>
   </g>
   <g id="line2d_93">
    <path d="M 218.376 25.732 
L 229.708 14.4 
" clip-path="url(#p8ece5a699e)" style="fill: none; stroke: #000000; stroke-linecap: square"/>
   </g>
   <g id="line2d_94">
    <path d="M 229.708 25.732 
L 218.376 14.4 
" clip-path="url(#p8ece5a699e)" style="fill: none; stroke: #000000; stroke-linecap: square"/>
   </g>
   <g id="line2d_95">
    <path d="M 229.708 48.396 
L 241.04 37.064 
" clip-path="url(#p8ece5a699e)" style="fill: none; stroke: #000000; stroke-linecap: square"/>
   </g>
   <g id="line2d_96">
    <path d="M 241.04 48.396 
L 229.708 37.064 
" clip-path="url(#p8ece5a699e)" style="fill: none; stroke: #000000; stroke-linecap: square"/>
   </g>
   <g id="line2d_97">
    <path d="M 229.708 37.064 
L 241.04 25.732 
" clip-path="url(#p8ece5a699e)" style="fill: none; stroke: #000000; stroke-linecap: square"/>
   </g>
   <g id="line2d_98">
    <path d="M 241.04 37.064 
L 229.708 25.732 
" clip-path="url(#p8ece5a699e)" style="fill: none; stroke: #000000; stroke-linecap: square"/>
   </g>
   <g id="line2d_99">
    <path d="M 229.708 25.732 
L 241.04 14.4 
" clip-path="url(#p8ece5a699e)" style="fill: none; stroke: #000000; stroke-linecap: square"/>
   </g>
   <g id="line2d_100">
    <path d="M 241.04 25.732 
L 229.708 14.4 
" clip-path="url(#p8ece5a699e)" style="fill: none; stroke: #000000; stroke-linecap: square"/>
   </g>
  </g>
 </g>
 <defs>
  <clipPath id="p8ece5a699e">
   <rect x="14.4" y="14.4" width="226.64" height="226.64"/>
  </clipPath>
 </defs>
</svg>
