<?xml version="1.0" encoding="utf-8" standalone="no"?>
<!DOCTYPE svg PUBLIC "-//W3C//DTD SVG 1.1//EN"
  "http://www.w3.org/Graphics/SVG/1.1/DTD/svg11.dtd">
<svg xmlns:xlink="http://www.w3.org/1999/xlink" width="255.44pt" height="255.44pt" viewBox="0 0 255.44 255.44" xmlns="http://www.w3.org/2000/svg" version="1.1">
 <metadata>
  <rdf:RDF xmlns:dc="http://purl.org/dc/elements/1.1/" xmlns:cc="http://creativecommons.org/ns#" xmlns:rdf="http://www.w3.org/1999/02/22-rdf-syntax-ns#">
   <cc:Work>
    <dc:type rdf:resource="http://purl.org/dc/dcmitype/StillImage"/>
    <dc:date>2023-12-11T18:27:46.608809</dc:date>
    <dc:format>image/svg+xml</dc:format>
    <dc:creator>
     <cc:Agent>
      <dc:title>Matplotlib v3.8.1, https://matplotlib.org/</dc:title>
     </cc:Agent>
    </dc:creator>
   </cc:Work>
  </rdf:RDF>
 </metadata>
 <defs>
  <style type="text/css">*{stroke-linejoin: round; stroke-linecap: butt}</style>
 </defs>
 <g id="figure_1">
  <g id="patch_1">
   <path d="M 0 255.44 
L 255.44 255.44 
L 255.44 0 
L 0 0 
L 0 255.44 
z
" style="fill: none"/>
  </g>
  <g id="axes_1">
   <g id="patch_2">
    <path d="M 14.4 241.04 
L 59.728 241.04 
L 59.728 195.712 
L 14.4 195.712 
z
" clip-path="url(#p8fd73873ee)" style="fill: #ffffff; stroke: #ffffff; stroke-linejoin: miter"/>
   </g>
   <g id="patch_3">
    <path d="M 37.064 219.5092 
C 37.364528 219.5092 37.652788 219.389799 37.865293 219.177293 
C 38.077799 218.964788 38.1972 218.676528 38.1972 218.376 
C 38.1972 218.075472 38.077799 217.787212 37.865293 217.574707 
C 37.652788 217.362201 37.364528 217.2428 37.064 217.2428 
C 36.763472 217.2428 36.475212 217.362201 36.262707 217.574707 
C 36.050201 217.787212 35.9308 218.075472 35.9308 218.376 
C 35.9308 218.676528 36.050201 218.964788 36.262707 219.177293 
C 36.475212 219.389799 36.763472 219.5092 37.064 219.5092 
z
" clip-path="url(#p8fd73873ee)" style="stroke: #000000; stroke-linejoin: miter"/>
   </g>
   <g id="patch_4">
    <path d="M 59.728 241.04 
L 127.72 241.04 
L 127.72 150.384 
L 59.728 150.384 
z
" clip-path="url(#p8fd73873ee)" style="fill: #ffffff; stroke: #ffffff; stroke-linejoin: miter"/>
   </g>
   <g id="patch_5">
    <path d="M 93.724 196.8452 
C 94.024528 196.8452 94.312788 196.725799 94.525293 196.513293 
C 94.737799 196.300788 94.8572 196.012528 94.8572 195.712 
C 94.8572 195.411472 94.737799 195.123212 94.525293 194.910707 
C 94.312788 194.698201 94.024528 194.5788 93.724 194.5788 
C 93.423472 194.5788 93.135212 194.698201 92.922707 194.910707 
C 92.710201 195.123212 92.5908 195.411472 92.5908 195.712 
C 92.5908 196.012528 92.710201 196.300788 92.922707 196.513293 
C 93.135212 196.725799 93.423472 196.8452 93.724 196.8452 
z
" clip-path="url(#p8fd73873ee)" style="stroke: #000000; stroke-linejoin: miter"/>
   </g>
   <g id="patch_6">
    <path d="M 127.72 241.04 
L 184.38 241.04 
L 184.38 207.044 
L 127.72 207.044 
z
" clip-path="url(#p8fd73873ee)" style="fill: #ffffff; stroke: #ffffff; stroke-linejoin: miter"/>
   </g>
   <g id="patch_7">
    <path d="M 156.05 225.1752 
C 156.350528 225.1752 156.638788 225.055799 156.851293 224.843293 
C 157.063799 224.630788 157.1832 224.342528 157.1832 224.042 
C 157.1832 223.741472 157.063799 223.453212 156.851293 223.240707 
C 156.638788 223.028201 156.350528 222.9088 156.05 222.9088 
C 155.749472 222.9088 155.461212 223.028201 155.248707 223.240707 
C 155.036201 223.453212 154.9168 223.741472 154.9168 224.042 
C 154.9168 224.342528 155.036201 224.630788 155.248707 224.843293 
C 155.461212 225.055799 155.749472 225.1752 156.05 225.1752 
z
" clip-path="url(#p8fd73873ee)" style="stroke: #000000; stroke-linejoin: miter"/>
   </g>
   <g id="patch_8">
    <path d="M 14.4 150.384 
L 150.384 150.384 
L 150.384 71.06 
L 14.4 71.06 
z
" clip-path="url(#p8fd73873ee)" style="fill: #ffffff; stroke: #ffffff; stroke-linejoin: miter"/>
   </g>
   <g id="patch_9">
    <path d="M 82.392 111.8552 
C 82.692528 111.8552 82.980788 111.735799 83.193293 111.523293 
C 83.405799 111.310788 83.5252 111.022528 83.5252 110.722 
C 83.5252 110.421472 83.405799 110.133212 83.193293 109.920707 
C 82.980788 109.708201 82.692528 109.5888 82.392 109.5888 
C 82.091472 109.5888 81.803212 109.708201 81.590707 109.920707 
C 81.378201 110.133212 81.2588 110.421472 81.2588 110.722 
C 81.2588 111.022528 81.378201 111.310788 81.590707 111.523293 
C 81.803212 111.735799 82.091472 111.8552 82.392 111.8552 
z
" clip-path="url(#p8fd73873ee)" style="stroke: #000000; stroke-linejoin: miter"/>
   </g>
   <g id="patch_10">
    <path d="M 184.38 241.04 
L 218.376 241.04 
L 218.376 105.056 
L 184.38 105.056 
z
" clip-path="url(#p8fd73873ee)" style="fill: #ffffff; stroke: #ffffff; stroke-linejoin: miter"/>
   </g>
   <g id="patch_11">
    <path d="M 201.378 174.1812 
C 201.678528 174.1812 201.966788 174.061799 202.179293 173.849293 
C 202.391799 173.636788 202.5112 173.348528 202.5112 173.048 
C 202.5112 172.747472 202.391799 172.459212 202.179293 172.246707 
C 201.966788 172.034201 201.678528 171.9148 201.378 171.9148 
C 201.077472 171.9148 200.789212 172.034201 200.576707 172.246707 
C 200.364201 172.459212 200.2448 172.747472 200.2448 173.048 
C 200.2448 173.348528 200.364201 173.636788 200.576707 173.849293 
C 200.789212 174.061799 201.077472 174.1812 201.378 174.1812 
z
" clip-path="url(#p8fd73873ee)" style="stroke: #000000; stroke-linejoin: miter"/>
   </g>
   <g id="patch_12">
    <path d="M 150.384 207.044 
L 184.38 207.044 
L 184.38 127.72 
L 150.384 127.72 
z
" clip-path="url(#p8fd73873ee)" style="fill: #ffffff; stroke: #ffffff; stroke-linejoin: miter"/>
   </g>
   <g id="patch_13">
    <path d="M 167.382 168.5152 
C 167.682528 168.5152 167.970788 168.395799 168.183293 168.183293 
C 168.395799 167.970788 168.5152 167.682528 168.5152 167.382 
C 168.5152 167.081472 168.395799 166.793212 168.183293 166.580707 
C 167.970788 166.368201 167.682528 166.2488 167.382 166.2488 
C 167.081472 166.2488 166.793212 166.368201 166.580707 166.580707 
C 166.368201 166.793212 166.2488 167.081472 166.2488 167.382 
C 166.2488 167.682528 166.368201 167.970788 166.580707 168.183293 
C 166.793212 168.395799 167.081472 168.5152 167.382 168.5152 
z
" clip-path="url(#p8fd73873ee)" style="stroke: #000000; stroke-linejoin: miter"/>
   </g>
   <g id="patch_14">
    <path d="M 218.376 241.04 
L 241.04 241.04 
L 241.04 116.388 
L 218.376 116.388 
z
" clip-path="url(#p8fd73873ee)" style="fill: #ffffff; stroke: #ffffff; stroke-linejoin: miter"/>
   </g>
   <g id="patch_15">
    <path d="M 229.708 179.8472 
C 230.008528 179.8472 230.296788 179.727799 230.509293 179.515293 
C 230.721799 179.302788 230.8412 179.014528 230.8412 178.714 
C 230.8412 178.413472 230.721799 178.125212 230.509293 177.912707 
C 230.296788 177.700201 230.008528 177.5808 229.708 177.5808 
C 229.407472 177.5808 229.119212 177.700201 228.906707 177.912707 
C 228.694201 178.125212 228.5748 178.413472 228.5748 178.714 
C 228.5748 179.014528 228.694201 179.302788 228.906707 179.515293 
C 229.119212 179.727799 229.407472 179.8472 229.708 179.8472 
z
" clip-path="url(#p8fd73873ee)" style="stroke: #000000; stroke-linejoin: miter"/>
   </g>
   <g id="patch_16">
    <path d="M 150.384 127.72 
L 173.048 127.72 
L 173.048 25.732 
L 150.384 25.732 
z
" clip-path="url(#p8fd73873ee)" style="fill: #ffffff; stroke: #ffffff; stroke-linejoin: miter"/>
   </g>
   <g id="patch_17">
    <path d="M 161.716 77.8592 
C 162.016528 77.8592 162.304788 77.739799 162.517293 77.527293 
C 162.729799 77.314788 162.8492 77.026528 162.8492 76.726 
C 162.8492 76.425472 162.729799 76.137212 162.517293 75.924707 
C 162.304788 75.712201 162.016528 75.5928 161.716 75.5928 
C 161.415472 75.5928 161.127212 75.712201 160.914707 75.924707 
C 160.702201 76.137212 160.5828 76.425472 160.5828 76.726 
C 160.5828 77.026528 160.702201 77.314788 160.914707 77.527293 
C 161.127212 77.739799 161.415472 77.8592 161.716 77.8592 
z
" clip-path="url(#p8fd73873ee)" style="stroke: #000000; stroke-linejoin: miter"/>
   </g>
   <g id="patch_18">
    <path d="M 14.4 195.712 
L 59.728 195.712 
L 59.728 161.716 
L 14.4 161.716 
z
" clip-path="url(#p8fd73873ee)" style="fill: #ffffff; stroke: #ffffff; stroke-linejoin: miter"/>
   </g>
   <g id="patch_19">
    <path d="M 37.064 179.8472 
C 37.364528 179.8472 37.652788 179.727799 37.865293 179.515293 
C 38.077799 179.302788 38.1972 179.014528 38.1972 178.714 
C 38.1972 178.413472 38.077799 178.125212 37.865293 177.912707 
C 37.652788 177.700201 37.364528 177.5808 37.064 177.5808 
C 36.763472 177.5808 36.475212 177.700201 36.262707 177.912707 
C 36.050201 178.125212 35.9308 178.413472 35.9308 178.714 
C 35.9308 179.014528 36.050201 179.302788 36.262707 179.515293 
C 36.475212 179.727799 36.763472 179.8472 37.064 179.8472 
z
" clip-path="url(#p8fd73873ee)" style="stroke: #000000; stroke-linejoin: miter"/>
   </g>
   <g id="patch_20">
    <path d="M 173.048 105.056 
L 207.044 105.056 
L 207.044 82.392 
L 173.048 82.392 
z
" clip-path="url(#p8fd73873ee)" style="fill: #ffffff; stroke: #ffffff; stroke-linejoin: miter"/>
   </g>
   <g id="patch_21">
    <path d="M 190.046 94.8572 
C 190.346528 94.8572 190.634788 94.737799 190.847293 94.525293 
C 191.059799 94.312788 191.1792 94.024528 191.1792 93.724 
C 191.1792 93.423472 191.059799 93.135212 190.847293 92.922707 
C 190.634788 92.710201 190.346528 92.5908 190.046 92.5908 
C 189.745472 92.5908 189.457212 92.710201 189.244707 92.922707 
C 189.032201 93.135212 188.9128 93.423472 188.9128 93.724 
C 188.9128 94.024528 189.032201 94.312788 189.244707 94.525293 
C 189.457212 94.737799 189.745472 94.8572 190.046 94.8572 
z
" clip-path="url(#p8fd73873ee)" style="stroke: #000000; stroke-linejoin: miter"/>
   </g>
   <g id="patch_22">
    <path d="M 218.376 116.388 
L 241.04 116.388 
L 241.04 48.396 
L 218.376 48.396 
z
" clip-path="url(#p8fd73873ee)" style="fill: #ffffff; stroke: #ffffff; stroke-linejoin: miter"/>
   </g>
   <g id="patch_23">
    <path d="M 229.708 83.5252 
C 230.008528 83.5252 230.296788 83.405799 230.509293 83.193293 
C 230.721799 82.980788 230.8412 82.692528 230.8412 82.392 
C 230.8412 82.091472 230.721799 81.803212 230.509293 81.590707 
C 230.296788 81.378201 230.008528 81.2588 229.708 81.2588 
C 229.407472 81.2588 229.119212 81.378201 228.906707 81.590707 
C 228.694201 81.803212 228.5748 82.091472 228.5748 82.392 
C 228.5748 82.692528 228.694201 82.980788 228.906707 83.193293 
C 229.119212 83.405799 229.407472 83.5252 229.708 83.5252 
z
" clip-path="url(#p8fd73873ee)" style="stroke: #000000; stroke-linejoin: miter"/>
   </g>
   <g id="patch_24">
    <path d="M 14.4 71.06 
L 71.06 71.06 
L 71.06 14.4 
L 14.4 14.4 
z
" clip-path="url(#p8fd73873ee)" style="fill: #ffffff; stroke: #ffffff; stroke-linejoin: miter"/>
   </g>
   <g id="patch_25">
    <path d="M 42.73 43.8632 
C 43.030528 43.8632 43.318788 43.743799 43.531293 43.531293 
C 43.743799 43.318788 43.8632 43.030528 43.8632 42.73 
C 43.8632 42.429472 43.743799 42.141212 43.531293 41.928707 
C 43.318788 41.716201 43.030528 41.5968 42.73 41.5968 
C 42.429472 41.5968 42.141212 41.716201 41.928707 41.928707 
C 41.716201 42.141212 41.5968 42.429472 41.5968 42.73 
C 41.5968 43.030528 41.716201 43.318788 41.928707 43.531293 
C 42.141212 43.743799 42.429472 43.8632 42.73 43.8632 
z
" clip-path="url(#p8fd73873ee)" style="stroke: #000000; stroke-linejoin: miter"/>
   </g>
   <g id="patch_26">
    <path d="M 127.72 207.044 
L 150.384 207.044 
L 150.384 161.716 
L 127.72 161.716 
z
" clip-path="url(#p8fd73873ee)" style="fill: #ffffff; stroke: #ffffff; stroke-linejoin: miter"/>
   </g>
   <g id="patch_27">
    <path d="M 139.052 185.5132 
C 139.352528 185.5132 139.640788 185.393799 139.853293 185.181293 
C 140.065799 184.968788 140.1852 184.680528 140.1852 184.38 
C 140.1852 184.079472 140.065799 183.791212 139.853293 183.578707 
C 139.640788 183.366201 139.352528 183.2468 139.052 183.2468 
C 138.751472 183.2468 138.463212 183.366201 138.250707 183.578707 
C 138.038201 183.791212 137.9188 184.079472 137.9188 184.38 
C 137.9188 184.680528 138.038201 184.968788 138.250707 185.181293 
C 138.463212 185.393799 138.751472 185.5132 139.052 185.5132 
z
" clip-path="url(#p8fd73873ee)" style="stroke: #000000; stroke-linejoin: miter"/>
   </g>
   <g id="patch_28">
    <path d="M 173.048 82.392 
L 207.044 82.392 
L 207.044 14.4 
L 173.048 14.4 
z
" clip-path="url(#p8fd73873ee)" style="fill: #ffffff; stroke: #ffffff; stroke-linejoin: miter"/>
   </g>
   <g id="patch_29">
    <path d="M 190.046 49.5292 
C 190.346528 49.5292 190.634788 49.409799 190.847293 49.197293 
C 191.059799 48.984788 191.1792 48.696528 191.1792 48.396 
C 191.1792 48.095472 191.059799 47.807212 190.847293 47.594707 
C 190.634788 47.382201 190.346528 47.2628 190.046 47.2628 
C 189.745472 47.2628 189.457212 47.382201 189.244707 47.594707 
C 189.032201 47.807212 188.9128 48.095472 188.9128 48.396 
C 188.9128 48.696528 189.032201 48.984788 189.244707 49.197293 
C 189.457212 49.409799 189.745472 49.5292 190.046 49.5292 
z
" clip-path="url(#p8fd73873ee)" style="stroke: #000000; stroke-linejoin: miter"/>
   </g>
   <g id="patch_30">
    <path d="M 71.06 71.06 
L 150.384 71.06 
L 150.384 14.4 
L 71.06 14.4 
z
" clip-path="url(#p8fd73873ee)" style="fill: #ffffff; stroke: #ffffff; stroke-linejoin: miter"/>
   </g>
   <g id="patch_31">
    <path d="M 110.722 43.8632 
C 111.022528 43.8632 111.310788 43.743799 111.523293 43.531293 
C 111.735799 43.318788 111.8552 43.030528 111.8552 42.73 
C 111.8552 42.429472 111.735799 42.141212 111.523293 41.928707 
C 111.310788 41.716201 111.022528 41.5968 110.722 41.5968 
C 110.421472 41.5968 110.133212 41.716201 109.920707 41.928707 
C 109.708201 42.141212 109.5888 42.429472 109.5888 42.73 
C 109.5888 43.030528 109.708201 43.318788 109.920707 43.531293 
C 110.133212 43.743799 110.421472 43.8632 110.722 43.8632 
z
" clip-path="url(#p8fd73873ee)" style="stroke: #000000; stroke-linejoin: miter"/>
   </g>
   <g id="patch_32">
    <path d="M 14.4 161.716 
L 25.732 161.716 
L 25.732 150.384 
L 14.4 150.384 
L 14.4 161.716 
z
" clip-path="url(#p8fd73873ee)" style="fill: none; stroke: #000000; stroke-linejoin: miter"/>
   </g>
   <g id="patch_33">
    <path d="M 25.732 161.716 
L 37.064 161.716 
L 37.064 150.384 
L 25.732 150.384 
L 25.732 161.716 
z
" clip-path="url(#p8fd73873ee)" style="fill: none; stroke: #000000; stroke-linejoin: miter"/>
   </g>
   <g id="patch_34">
    <path d="M 37.064 161.716 
L 48.396 161.716 
L 48.396 150.384 
L 37.064 150.384 
L 37.064 161.716 
z
" clip-path="url(#p8fd73873ee)" style="fill: none; stroke: #000000; stroke-linejoin: miter"/>
   </g>
   <g id="patch_35">
    <path d="M 48.396 161.716 
L 59.728 161.716 
L 59.728 150.384 
L 48.396 150.384 
L 48.396 161.716 
z
" clip-path="url(#p8fd73873ee)" style="fill: none; stroke: #000000; stroke-linejoin: miter"/>
   </g>
   <g id="patch_36">
    <path d="M 127.72 161.716 
L 139.052 161.716 
L 139.052 150.384 
L 127.72 150.384 
L 127.72 161.716 
z
" clip-path="url(#p8fd73873ee)" style="fill: none; stroke: #000000; stroke-linejoin: miter"/>
   </g>
   <g id="patch_37">
    <path d="M 139.052 161.716 
L 150.384 161.716 
L 150.384 150.384 
L 139.052 150.384 
L 139.052 161.716 
z
" clip-path="url(#p8fd73873ee)" style="fill: none; stroke: #000000; stroke-linejoin: miter"/>
   </g>
   <g id="patch_38">
    <path d="M 150.384 25.732 
L 161.716 25.732 
L 161.716 14.4 
L 150.384 14.4 
L 150.384 25.732 
z
" clip-path="url(#p8fd73873ee)" style="fill: none; stroke: #000000; stroke-linejoin: miter"/>
   </g>
   <g id="patch_39">
    <path d="M 161.716 25.732 
L 173.048 25.732 
L 173.048 14.4 
L 161.716 14.4 
L 161.716 25.732 
z
" clip-path="url(#p8fd73873ee)" style="fill: none; stroke: #000000; stroke-linejoin: miter"/>
   </g>
   <g id="patch_40">
    <path d="M 173.048 127.72 
L 184.38 127.72 
L 184.38 116.388 
L 173.048 116.388 
L 173.048 127.72 
z
" clip-path="url(#p8fd73873ee)" style="fill: none; stroke: #000000; stroke-linejoin: miter"/>
   </g>
   <g id="patch_41">
    <path d="M 173.048 116.388 
L 184.38 116.388 
L 184.38 105.056 
L 173.048 105.056 
L 173.048 116.388 
z
" clip-path="url(#p8fd73873ee)" style="fill: none; stroke: #000000; stroke-linejoin: miter"/>
   </g>
   <g id="patch_42">
    <path d="M 207.044 105.056 
L 218.376 105.056 
L 218.376 93.724 
L 207.044 93.724 
L 207.044 105.056 
z
" clip-path="url(#p8fd73873ee)" style="fill: none; stroke: #000000; stroke-linejoin: miter"/>
   </g>
   <g id="patch_43">
    <path d="M 207.044 93.724 
L 218.376 93.724 
L 218.376 82.392 
L 207.044 82.392 
L 207.044 93.724 
z
" clip-path="url(#p8fd73873ee)" style="fill: none; stroke: #000000; stroke-linejoin: miter"/>
   </g>
   <g id="patch_44">
    <path d="M 207.044 82.392 
L 218.376 82.392 
L 218.376 71.06 
L 207.044 71.06 
L 207.044 82.392 
z
" clip-path="url(#p8fd73873ee)" style="fill: none; stroke: #000000; stroke-linejoin: miter"/>
   </g>
   <g id="patch_45">
    <path d="M 207.044 71.06 
L 218.376 71.06 
L 218.376 59.728 
L 207.044 59.728 
L 207.044 71.06 
z
" clip-path="url(#p8fd73873ee)" style="fill: none; stroke: #000000; stroke-linejoin: miter"/>
   </g>
   <g id="patch_46">
    <path d="M 207.044 59.728 
L 218.376 59.728 
L 218.376 48.396 
L 207.044 48.396 
L 207.044 59.728 
z
" clip-path="url(#p8fd73873ee)" style="fill: none; stroke: #000000; stroke-linejoin: miter"/>
   </g>
   <g id="patch_47">
    <path d="M 207.044 48.396 
L 218.376 48.396 
L 218.376 37.064 
L 207.044 37.064 
L 207.044 48.396 
z
" clip-path="url(#p8fd73873ee)" style="fill: none; stroke: #000000; stroke-linejoin: miter"/>
   </g>
   <g id="patch_48">
    <path d="M 207.044 37.064 
L 218.376 37.064 
L 218.376 25.732 
L 207.044 25.732 
L 207.044 37.064 
z
" clip-path="url(#p8fd73873ee)" style="fill: none; stroke: #000000; stroke-linejoin: miter"/>
   </g>
   <g id="patch_49">
    <path d="M 207.044 25.732 
L 218.376 25.732 
L 218.376 14.4 
L 207.044 14.4 
L 207.044 25.732 
z
" clip-path="url(#p8fd73873ee)" style="fill: none; stroke: #000000; stroke-linejoin: miter"/>
   </g>
   <g id="patch_50">
    <path d="M 218.376 48.396 
L 229.708 48.396 
L 229.708 37.064 
L 218.376 37.064 
L 218.376 48.396 
z
" clip-path="url(#p8fd73873ee)" style="fill: none; stroke: #000000; stroke-linejoin: miter"/>
   </g>
   <g id="patch_51">
    <path d="M 218.376 37.064 
L 229.708 37.064 
L 229.708 25.732 
L 218.376 25.732 
L 218.376 37.064 
z
" clip-path="url(#p8fd73873ee)" style="fill: none; stroke: #000000; stroke-linejoin: miter"/>
   </g>
   <g id="patch_52">
    <path d="M 218.376 25.732 
L 229.708 25.732 
L 229.708 14.4 
L 218.376 14.4 
L 218.376 25.732 
z
" clip-path="url(#p8fd73873ee)" style="fill: none; stroke: #000000; stroke-linejoin: miter"/>
   </g>
   <g id="patch_53">
    <path d="M 229.708 48.396 
L 241.04 48.396 
L 241.04 37.064 
L 229.708 37.064 
L 229.708 48.396 
z
" clip-path="url(#p8fd73873ee)" style="fill: none; stroke: #000000; stroke-linejoin: miter"/>
   </g>
   <g id="patch_54">
    <path d="M 229.708 37.064 
L 241.04 37.064 
L 241.04 25.732 
L 229.708 25.732 
L 229.708 37.064 
z
" clip-path="url(#p8fd73873ee)" style="fill: none; stroke: #000000; stroke-linejoin: miter"/>
   </g>
   <g id="patch_55">
    <path d="M 229.708 25.732 
L 241.04 25.732 
L 241.04 14.4 
L 229.708 14.4 
L 229.708 25.732 
z
" clip-path="url(#p8fd73873ee)" style="fill: none; stroke: #000000; stroke-linejoin: miter"/>
   </g>
   <g id="line2d_1">
    <path d="M 14.4 241.04 
L 59.728 241.04 
" clip-path="url(#p8fd73873ee)" style="fill: none; stroke: #000000; stroke-width: 1.5; stroke-linecap: square"/>
   </g>
   <g id="line2d_2">
    <path d="M 14.4 241.04 
L 14.4 195.712 
" clip-path="url(#p8fd73873ee)" style="fill: none; stroke: #000000; stroke-width: 1.5; stroke-linecap: square"/>
   </g>
   <g id="line2d_3">
    <path d="M 59.728 241.04 
L 59.728 195.712 
" clip-path="url(#p8fd73873ee)" style="fill: none; stroke: #000000; stroke-width: 1.5; stroke-linecap: square"/>
   </g>
   <g id="line2d_4">
    <path d="M 14.4 195.712 
L 59.728 195.712 
" clip-path="url(#p8fd73873ee)" style="fill: none; stroke: #000000; stroke-width: 1.5; stroke-linecap: square"/>
   </g>
   <g id="line2d_5">
    <path d="M 59.728 241.04 
L 127.72 241.04 
" clip-path="url(#p8fd73873ee)" style="fill: none; stroke: #000000; stroke-width: 1.5; stroke-linecap: square"/>
   </g>
   <g id="line2d_6">
    <path d="M 59.728 241.04 
L 59.728 150.384 
" clip-path="url(#p8fd73873ee)" style="fill: none; stroke: #000000; stroke-width: 1.5; stroke-linecap: square"/>
   </g>
   <g id="line2d_7">
    <path d="M 127.72 241.04 
L 127.72 150.384 
" clip-path="url(#p8fd73873ee)" style="fill: none; stroke: #000000; stroke-width: 1.5; stroke-linecap: square"/>
   </g>
   <g id="line2d_8">
    <path d="M 59.728 150.384 
L 127.72 150.384 
" clip-path="url(#p8fd73873ee)" style="fill: none; stroke: #000000; stroke-width: 1.5; stroke-linecap: square"/>
   </g>
   <g id="line2d_9">
    <path d="M 127.72 241.04 
L 184.38 241.04 
" clip-path="url(#p8fd73873ee)" style="fill: none; stroke: #000000; stroke-width: 1.5; stroke-linecap: square"/>
   </g>
   <g id="line2d_10">
    <path d="M 127.72 241.04 
L 127.72 207.044 
" clip-path="url(#p8fd73873ee)" style="fill: none; stroke: #000000; stroke-width: 1.5; stroke-linecap: square"/>
   </g>
   <g id="line2d_11">
    <path d="M 184.38 241.04 
L 184.38 207.044 
" clip-path="url(#p8fd73873ee)" style="fill: none; stroke: #000000; stroke-width: 1.5; stroke-linecap: square"/>
   </g>
   <g id="line2d_12">
    <path d="M 127.72 207.044 
L 184.38 207.044 
" clip-path="url(#p8fd73873ee)" style="fill: none; stroke: #000000; stroke-width: 1.5; stroke-linecap: square"/>
   </g>
   <g id="line2d_13">
    <path d="M 14.4 150.384 
L 150.384 150.384 
" clip-path="url(#p8fd73873ee)" style="fill: none; stroke: #000000; stroke-width: 1.5; stroke-linecap: square"/>
   </g>
   <g id="line2d_14">
    <path d="M 14.4 150.384 
L 14.4 71.06 
" clip-path="url(#p8fd73873ee)" style="fill: none; stroke: #000000; stroke-width: 1.5; stroke-linecap: square"/>
   </g>
   <g id="line2d_15">
    <path d="M 150.384 150.384 
L 150.384 71.06 
" clip-path="url(#p8fd73873ee)" style="fill: none; stroke: #000000; stroke-width: 1.5; stroke-linecap: square"/>
   </g>
   <g id="line2d_16">
    <path d="M 14.4 71.06 
L 150.384 71.06 
" clip-path="url(#p8fd73873ee)" style="fill: none; stroke: #000000; stroke-width: 1.5; stroke-linecap: square"/>
   </g>
   <g id="line2d_17">
    <path d="M 184.38 241.04 
L 218.376 241.04 
" clip-path="url(#p8fd73873ee)" style="fill: none; stroke: #000000; stroke-width: 1.5; stroke-linecap: square"/>
   </g>
   <g id="line2d_18">
    <path d="M 184.38 241.04 
L 184.38 105.056 
" clip-path="url(#p8fd73873ee)" style="fill: none; stroke: #000000; stroke-width: 1.5; stroke-linecap: square"/>
   </g>
   <g id="line2d_19">
    <path d="M 218.376 241.04 
L 218.376 105.056 
" clip-path="url(#p8fd73873ee)" style="fill: none; stroke: #000000; stroke-width: 1.5; stroke-linecap: square"/>
   </g>
   <g id="line2d_20">
    <path d="M 184.38 105.056 
L 218.376 105.056 
" clip-path="url(#p8fd73873ee)" style="fill: none; stroke: #000000; stroke-width: 1.5; stroke-linecap: square"/>
   </g>
   <g id="line2d_21">
    <path d="M 150.384 207.044 
L 184.38 207.044 
" clip-path="url(#p8fd73873ee)" style="fill: none; stroke: #000000; stroke-width: 1.5; stroke-linecap: square"/>
   </g>
   <g id="line2d_22">
    <path d="M 150.384 207.044 
L 150.384 127.72 
" clip-path="url(#p8fd73873ee)" style="fill: none; stroke: #000000; stroke-width: 1.5; stroke-linecap: square"/>
   </g>
   <g id="line2d_23">
    <path d="M 184.38 207.044 
L 184.38 127.72 
" clip-path="url(#p8fd73873ee)" style="fill: none; stroke: #000000; stroke-width: 1.5; stroke-linecap: square"/>
   </g>
   <g id="line2d_24">
    <path d="M 150.384 127.72 
L 184.38 127.72 
" clip-path="url(#p8fd73873ee)" style="fill: none; stroke: #000000; stroke-width: 1.5; stroke-linecap: square"/>
   </g>
   <g id="line2d_25">
    <path d="M 218.376 241.04 
L 241.04 241.04 
" clip-path="url(#p8fd73873ee)" style="fill: none; stroke: #000000; stroke-width: 1.5; stroke-linecap: square"/>
   </g>
   <g id="line2d_26">
    <path d="M 218.376 241.04 
L 218.376 116.388 
" clip-path="url(#p8fd73873ee)" style="fill: none; stroke: #000000; stroke-width: 1.5; stroke-linecap: square"/>
   </g>
   <g id="line2d_27">
    <path d="M 241.04 241.04 
L 241.04 116.388 
" clip-path="url(#p8fd73873ee)" style="fill: none; stroke: #000000; stroke-width: 1.5; stroke-linecap: square"/>
   </g>
   <g id="line2d_28">
    <path d="M 218.376 116.388 
L 241.04 116.388 
" clip-path="url(#p8fd73873ee)" style="fill: none; stroke: #000000; stroke-width: 1.5; stroke-linecap: square"/>
   </g>
   <g id="line2d_29">
    <path d="M 150.384 127.72 
L 173.048 127.72 
" clip-path="url(#p8fd73873ee)" style="fill: none; stroke: #000000; stroke-width: 1.5; stroke-linecap: square"/>
   </g>
   <g id="line2d_30">
    <path d="M 150.384 127.72 
L 150.384 25.732 
" clip-path="url(#p8fd73873ee)" style="fill: none; stroke: #000000; stroke-width: 1.5; stroke-linecap: square"/>
   </g>
   <g id="line2d_31">
    <path d="M 173.048 127.72 
L 173.048 25.732 
" clip-path="url(#p8fd73873ee)" style="fill: none; stroke: #000000; stroke-width: 1.5; stroke-linecap: square"/>
   </g>
   <g id="line2d_32">
    <path d="M 150.384 25.732 
L 173.048 25.732 
" clip-path="url(#p8fd73873ee)" style="fill: none; stroke: #000000; stroke-width: 1.5; stroke-linecap: square"/>
   </g>
   <g id="line2d_33">
    <path d="M 14.4 195.712 
L 59.728 195.712 
" clip-path="url(#p8fd73873ee)" style="fill: none; stroke: #000000; stroke-width: 1.5; stroke-linecap: square"/>
   </g>
   <g id="line2d_34">
    <path d="M 14.4 195.712 
L 14.4 161.716 
" clip-path="url(#p8fd73873ee)" style="fill: none; stroke: #000000; stroke-width: 1.5; stroke-linecap: square"/>
   </g>
   <g id="line2d_35">
    <path d="M 59.728 195.712 
L 59.728 161.716 
" clip-path="url(#p8fd73873ee)" style="fill: none; stroke: #000000; stroke-width: 1.5; stroke-linecap: square"/>
   </g>
   <g id="line2d_36">
    <path d="M 14.4 161.716 
L 59.728 161.716 
" clip-path="url(#p8fd73873ee)" style="fill: none; stroke: #000000; stroke-width: 1.5; stroke-linecap: square"/>
   </g>
   <g id="line2d_37">
    <path d="M 173.048 105.056 
L 207.044 105.056 
" clip-path="url(#p8fd73873ee)" style="fill: none; stroke: #000000; stroke-width: 1.5; stroke-linecap: square"/>
   </g>
   <g id="line2d_38">
    <path d="M 173.048 105.056 
L 173.048 82.392 
" clip-path="url(#p8fd73873ee)" style="fill: none; stroke: #000000; stroke-width: 1.5; stroke-linecap: square"/>
   </g>
   <g id="line2d_39">
    <path d="M 207.044 105.056 
L 207.044 82.392 
" clip-path="url(#p8fd73873ee)" style="fill: none; stroke: #000000; stroke-width: 1.5; stroke-linecap: square"/>
   </g>
   <g id="line2d_40">
    <path d="M 173.048 82.392 
L 207.044 82.392 
" clip-path="url(#p8fd73873ee)" style="fill: none; stroke: #000000; stroke-width: 1.5; stroke-linecap: square"/>
   </g>
   <g id="line2d_41">
    <path d="M 218.376 116.388 
L 241.04 116.388 
" clip-path="url(#p8fd73873ee)" style="fill: none; stroke: #000000; stroke-width: 1.5; stroke-linecap: square"/>
   </g>
   <g id="line2d_42">
    <path d="M 218.376 116.388 
L 218.376 48.396 
" clip-path="url(#p8fd73873ee)" style="fill: none; stroke: #000000; stroke-width: 1.5; stroke-linecap: square"/>
   </g>
   <g id="line2d_43">
    <path d="M 241.04 116.388 
L 241.04 48.396 
" clip-path="url(#p8fd73873ee)" style="fill: none; stroke: #000000; stroke-width: 1.5; stroke-linecap: square"/>
   </g>
   <g id="line2d_44">
    <path d="M 218.376 48.396 
L 241.04 48.396 
" clip-path="url(#p8fd73873ee)" style="fill: none; stroke: #000000; stroke-width: 1.5; stroke-linecap: square"/>
   </g>
   <g id="line2d_45">
    <path d="M 14.4 71.06 
L 71.06 71.06 
" clip-path="url(#p8fd73873ee)" style="fill: none; stroke: #000000; stroke-width: 1.5; stroke-linecap: square"/>
   </g>
   <g id="line2d_46">
    <path d="M 14.4 71.06 
L 14.4 14.4 
" clip-path="url(#p8fd73873ee)" style="fill: none; stroke: #000000; stroke-width: 1.5; stroke-linecap: square"/>
   </g>
   <g id="line2d_47">
    <path d="M 71.06 71.06 
L 71.06 14.4 
" clip-path="url(#p8fd73873ee)" style="fill: none; stroke: #000000; stroke-width: 1.5; stroke-linecap: square"/>
   </g>
   <g id="line2d_48">
    <path d="M 14.4 14.4 
L 71.06 14.4 
" clip-path="url(#p8fd73873ee)" style="fill: none; stroke: #000000; stroke-width: 1.5; stroke-linecap: square"/>
   </g>
   <g id="line2d_49">
    <path d="M 127.72 207.044 
L 150.384 207.044 
" clip-path="url(#p8fd73873ee)" style="fill: none; stroke: #000000; stroke-width: 1.5; stroke-linecap: square"/>
   </g>
   <g id="line2d_50">
    <path d="M 127.72 207.044 
L 127.72 161.716 
" clip-path="url(#p8fd73873ee)" style="fill: none; stroke: #000000; stroke-width: 1.5; stroke-linecap: square"/>
   </g>
   <g id="line2d_51">
    <path d="M 150.384 207.044 
L 150.384 161.716 
" clip-path="url(#p8fd73873ee)" style="fill: none; stroke: #000000; stroke-width: 1.5; stroke-linecap: square"/>
   </g>
   <g id="line2d_52">
    <path d="M 127.72 161.716 
L 150.384 161.716 
" clip-path="url(#p8fd73873ee)" style="fill: none; stroke: #000000; stroke-width: 1.5; stroke-linecap: square"/>
   </g>
   <g id="line2d_53">
    <path d="M 173.048 82.392 
L 207.044 82.392 
" clip-path="url(#p8fd73873ee)" style="fill: none; stroke: #000000; stroke-width: 1.5; stroke-linecap: square"/>
   </g>
   <g id="line2d_54">
    <path d="M 173.048 82.392 
L 173.048 14.4 
" clip-path="url(#p8fd73873ee)" style="fill: none; stroke: #000000; stroke-width: 1.5; stroke-linecap: square"/>
   </g>
   <g id="line2d_55">
    <path d="M 207.044 82.392 
L 207.044 14.4 
" clip-path="url(#p8fd73873ee)" style="fill: none; stroke: #000000; stroke-width: 1.5; stroke-linecap: square"/>
   </g>
   <g id="line2d_56">
    <path d="M 173.048 14.4 
L 207.044 14.4 
" clip-path="url(#p8fd73873ee)" style="fill: none; stroke: #000000; stroke-width: 1.5; stroke-linecap: square"/>
   </g>
   <g id="line2d_57">
    <path d="M 71.06 71.06 
L 150.384 71.06 
" clip-path="url(#p8fd73873ee)" style="fill: none; stroke: #000000; stroke-width: 1.5; stroke-linecap: square"/>
   </g>
   <g id="line2d_58">
    <path d="M 71.06 71.06 
L 71.06 14.4 
" clip-path="url(#p8fd73873ee)" style="fill: none; stroke: #000000; stroke-width: 1.5; stroke-linecap: square"/>
   </g>
   <g id="line2d_59">
    <path d="M 150.384 71.06 
L 150.384 14.4 
" clip-path="url(#p8fd73873ee)" style="fill: none; stroke: #000000; stroke-width: 1.5; stroke-linecap: square"/>
   </g>
   <g id="line2d_60">
    <path d="M 71.06 14.4 
L 150.384 14.4 
" clip-path="url(#p8fd73873ee)" style="fill: none; stroke: #000000; stroke-width: 1.5; stroke-linecap: square"/>
   </g>
   <g id="line2d_61">
    <path d="M 14.4 161.716 
L 25.732 150.384 
" clip-path="url(#p8fd73873ee)" style="fill: none; stroke: #000000; stroke-linecap: square"/>
   </g>
   <g id="line2d_62">
    <path d="M 25.732 161.716 
L 14.4 150.384 
" clip-path="url(#p8fd73873ee)" style="fill: none; stroke: #000000; stroke-linecap: square"/>
   </g>
   <g id="line2d_63">
    <path d="M 25.732 161.716 
L 37.064 150.384 
" clip-path="url(#p8fd73873ee)" style="fill: none; stroke: #000000; stroke-linecap: square"/>
   </g>
   <g id="line2d_64">
    <path d="M 37.064 161.716 
L 25.732 150.384 
" clip-path="url(#p8fd73873ee)" style="fill: none; stroke: #000000; stroke-linecap: square"/>
   </g>
   <g id="line2d_65">
    <path d="M 37.064 161.716 
L 48.396 150.384 
" clip-path="url(#p8fd73873ee)" style="fill: none; stroke: #000000; stroke-linecap: square"/>
   </g>
   <g id="line2d_66">
    <path d="M 48.396 161.716 
L 37.064 150.384 
" clip-path="url(#p8fd73873ee)" style="fill: none; stroke: #000000; stroke-linecap: square"/>
   </g>
   <g id="line2d_67">
    <path d="M 48.396 161.716 
L 59.728 150.384 
" clip-path="url(#p8fd73873ee)" style="fill: none; stroke: #000000; stroke-linecap: square"/>
   </g>
   <g id="line2d_68">
    <path d="M 59.728 161.716 
L 48.396 150.384 
" clip-path="url(#p8fd73873ee)" style="fill: none; stroke: #000000; stroke-linecap: square"/>
   </g>
   <g id="line2d_69">
    <path d="M 127.72 161.716 
L 139.052 150.384 
" clip-path="url(#p8fd73873ee)" style="fill: none; stroke: #000000; stroke-linecap: square"/>
   </g>
   <g id="line2d_70">
    <path d="M 139.052 161.716 
L 127.72 150.384 
" clip-path="url(#p8fd73873ee)" style="fill: none; stroke: #000000; stroke-linecap: square"/>
   </g>
   <g id="line2d_71">
    <path d="M 139.052 161.716 
L 150.384 150.384 
" clip-path="url(#p8fd73873ee)" style="fill: none; stroke: #000000; stroke-linecap: square"/>
   </g>
   <g id="line2d_72">
    <path d="M 150.384 161.716 
L 139.052 150.384 
" clip-path="url(#p8fd73873ee)" style="fill: none; stroke: #000000; stroke-linecap: square"/>
   </g>
   <g id="line2d_73">
    <path d="M 150.384 25.732 
L 161.716 14.4 
" clip-path="url(#p8fd73873ee)" style="fill: none; stroke: #000000; stroke-linecap: square"/>
   </g>
   <g id="line2d_74">
    <path d="M 161.716 25.732 
L 150.384 14.4 
" clip-path="url(#p8fd73873ee)" style="fill: none; stroke: #000000; stroke-linecap: square"/>
   </g>
   <g id="line2d_75">
    <path d="M 161.716 25.732 
L 173.048 14.4 
" clip-path="url(#p8fd73873ee)" style="fill: none; stroke: #000000; stroke-linecap: square"/>
   </g>
   <g id="line2d_76">
    <path d="M 173.048 25.732 
L 161.716 14.4 
" clip-path="url(#p8fd73873ee)" style="fill: none; stroke: #000000; stroke-linecap: square"/>
   </g>
   <g id="line2d_77">
    <path d="M 173.048 127.72 
L 184.38 116.388 
" clip-path="url(#p8fd73873ee)" style="fill: none; stroke: #000000; stroke-linecap: square"/>
   </g>
   <g id="line2d_78">
    <path d="M 184.38 127.72 
L 173.048 116.388 
" clip-path="url(#p8fd73873ee)" style="fill: none; stroke: #000000; stroke-linecap: square"/>
   </g>
   <g id="line2d_79">
    <path d="M 173.048 116.388 
L 184.38 105.056 
" clip-path="url(#p8fd73873ee)" style="fill: none; stroke: #000000; stroke-linecap: square"/>
   </g>
   <g id="line2d_80">
    <path d="M 184.38 116.388 
L 173.048 105.056 
" clip-path="url(#p8fd73873ee)" style="fill: none; stroke: #000000; stroke-linecap: square"/>
   </g>
   <g id="line2d_81">
    <path d="M 207.044 105.056 
L 218.376 93.724 
" clip-path="url(#p8fd73873ee)" style="fill: none; stroke: #000000; stroke-linecap: square"/>
   </g>
   <g id="line2d_82">
    <path d="M 218.376 105.056 
L 207.044 93.724 
" clip-path="url(#p8fd73873ee)" style="fill: none; stroke: #000000; stroke-linecap: square"/>
   </g>
   <g id="line2d_83">
    <path d="M 207.044 93.724 
L 218.376 82.392 
" clip-path="url(#p8fd73873ee)" style="fill: none; stroke: #000000; stroke-linecap: square"/>
   </g>
   <g id="line2d_84">
    <path d="M 218.376 93.724 
L 207.044 82.392 
" clip-path="url(#p8fd73873ee)" style="fill: none; stroke: #000000; stroke-linecap: square"/>
   </g>
   <g id="line2d_85">
    <path d="M 207.044 82.392 
L 218.376 71.06 
" clip-path="url(#p8fd73873ee)" style="fill: none; stroke: #000000; stroke-linecap: square"/>
   </g>
   <g id="line2d_86">
    <path d="M 218.376 82.392 
L 207.044 71.06 
" clip-path="url(#p8fd73873ee)" style="fill: none; stroke: #000000; stroke-linecap: square"/>
   </g>
   <g id="line2d_87">
    <path d="M 207.044 71.06 
L 218.376 59.728 
" clip-path="url(#p8fd73873ee)" style="fill: none; stroke: #000000; stroke-linecap: square"/>
   </g>
   <g id="line2d_88">
    <path d="M 218.376 71.06 
L 207.044 59.728 
" clip-path="url(#p8fd73873ee)" style="fill: none; stroke: #000000; stroke-linecap: square"/>
   </g>
   <g id="line2d_89">
    <path d="M 207.044 59.728 
L 218.376 48.396 
" clip-path="url(#p8fd73873ee)" style="fill: none; stroke: #000000; stroke-linecap: square"/>
   </g>
   <g id="line2d_90">
    <path d="M 218.376 59.728 
L 207.044 48.396 
" clip-path="url(#p8fd73873ee)" style="fill: none; stroke: #000000; stroke-linecap: square"/>
   </g>
   <g id="line2d_91">
    <path d="M 207.044 48.396 
L 218.376 37.064 
" clip-path="url(#p8fd73873ee)" style="fill: none; stroke: #000000; stroke-linecap: square"/>
   </g>
   <g id="line2d_92">
    <path d="M 218.376 48.396 
L 207.044 37.064 
" clip-path="url(#p8fd73873ee)" style="fill: none; stroke: #000000; stroke-linecap: square"/>
   </g>
   <g id="line2d_93">
    <path d="M 207.044 37.064 
L 218.376 25.732 
" clip-path="url(#p8fd73873ee)" style="fill: none; stroke: #000000; stroke-linecap: square"/>
   </g>
   <g id="line2d_94">
    <path d="M 218.376 37.064 
L 207.044 25.732 
" clip-path="url(#p8fd73873ee)" style="fill: none; stroke: #000000; stroke-linecap: square"/>
   </g>
   <g id="line2d_95">
    <path d="M 207.044 25.732 
L 218.376 14.4 
" clip-path="url(#p8fd73873ee)" style="fill: none; stroke: #000000; stroke-linecap: square"/>
   </g>
   <g id="line2d_96">
    <path d="M 218.376 25.732 
L 207.044 14.4 
" clip-path="url(#p8fd73873ee)" style="fill: none; stroke: #000000; stroke-linecap: square"/>
   </g>
   <g id="line2d_97">
    <path d="M 218.376 48.396 
L 229.708 37.064 
" clip-path="url(#p8fd73873ee)" style="fill: none; stroke: #000000; stroke-linecap: square"/>
   </g>
   <g id="line2d_98">
    <path d="M 229.708 48.396 
L 218.376 37.064 
" clip-path="url(#p8fd73873ee)" style="fill: none; stroke: #000000; stroke-linecap: square"/>
   </g>
   <g id="line2d_99">
    <path d="M 218.376 37.064 
L 229.708 25.732 
" clip-path="url(#p8fd73873ee)" style="fill: none; stroke: #000000; stroke-linecap: square"/>
   </g>
   <g id="line2d_100">
    <path d="M 229.708 37.064 
L 218.376 25.732 
" clip-path="url(#p8fd73873ee)" style="fill: none; stroke: #000000; stroke-linecap: square"/>
   </g>
   <g id="line2d_101">
    <path d="M 218.376 25.732 
L 229.708 14.4 
" clip-path="url(#p8fd73873ee)" style="fill: none; stroke: #000000; stroke-linecap: square"/>
   </g>
   <g id="line2d_102">
    <path d="M 229.708 25.732 
L 218.376 14.4 
" clip-path="url(#p8fd73873ee)" style="fill: none; stroke: #000000; stroke-linecap: square"/>
   </g>
   <g id="line2d_103">
    <path d="M 229.708 48.396 
L 241.04 37.064 
" clip-path="url(#p8fd73873ee)" style="fill: none; stroke: #000000; stroke-linecap: square"/>
   </g>
   <g id="line2d_104">
    <path d="M 241.04 48.396 
L 229.708 37.064 
" clip-path="url(#p8fd73873ee)" style="fill: none; stroke: #000000; stroke-linecap: square"/>
   </g>
   <g id="line2d_105">
    <path d="M 229.708 37.064 
L 241.04 25.732 
" clip-path="url(#p8fd73873ee)" style="fill: none; stroke: #000000; stroke-linecap: square"/>
   </g>
   <g id="line2d_106">
    <path d="M 241.04 37.064 
L 229.708 25.732 
" clip-path="url(#p8fd73873ee)" style="fill: none; stroke: #000000; stroke-linecap: square"/>
   </g>
   <g id="line2d_107">
    <path d="M 229.708 25.732 
L 241.04 14.4 
" clip-path="url(#p8fd73873ee)" style="fill: none; stroke: #000000; stroke-linecap: square"/>
   </g>
   <g id="line2d_108">
    <path d="M 241.04 25.732 
L 229.708 14.4 
" clip-path="url(#p8fd73873ee)" style="fill: none; stroke: #000000; stroke-linecap: square"/>
   </g>
  </g>
 </g>
 <defs>
  <clipPath id="p8fd73873ee">
   <rect x="14.4" y="14.4" width="226.64" height="226.64"/>
  </clipPath>
 </defs>
</svg>
